<svg width="190" height="190" viewBox="0 0 190 190" fill="none" xmlns="http://www.w3.org/2000/svg">
<path d="M58.8707 102.793C83.2843 102.793 103.075 83.3743 103.075 59.4198C103.075 35.4653 83.2843 16.0464 58.8707 16.0464C34.4571 16.0464 14.666 35.4653 14.666 59.4198C14.666 83.3743 34.4571 102.793 58.8707 102.793Z" fill="#FFDE00"/>
<path d="M143.507 102.793C167.921 102.793 187.712 83.3743 187.712 59.4198C187.712 35.4653 167.921 16.0464 143.507 16.0464C119.094 16.0464 99.3027 35.4653 99.3027 59.4198C99.3027 83.3743 119.094 102.793 143.507 102.793Z" fill="#FFDE00"/>
<path d="M187.848 63.6497C187.848 39.2169 168.046 19.4005 143.613 19.4005C142.218 19.4005 140.823 19.4747 139.457 19.6083C139.027 19.6528 138.596 19.7122 138.166 19.7716C137.23 19.8903 136.295 20.0239 135.375 20.2021C134.9 20.2911 134.425 20.395 133.95 20.4989C133.059 20.6919 132.198 20.9146 131.338 21.1669C130.907 21.3005 130.462 21.4044 130.016 21.5528C128.992 21.8794 127.998 22.2505 127.003 22.6513C126.766 22.7552 126.513 22.8294 126.291 22.9185C125.103 23.4231 123.945 24.0021 122.802 24.5958C122.416 24.8036 122.045 25.0263 121.659 25.2489C120.45 25.929 119.281 26.6774 118.156 27.4903C117.503 27.9505 116.88 28.4255 116.256 28.9153C115.841 29.2419 115.425 29.5685 115.024 29.9099C114.386 30.4591 113.763 31.0231 113.154 31.6021C112.827 31.9138 112.471 32.2255 112.145 32.5372C111.284 33.413 110.452 34.3185 109.666 35.2685C109.339 35.6544 109.042 36.07 108.73 36.4708C108.255 37.0942 107.78 37.7028 107.32 38.356C106.979 38.831 106.667 39.3208 106.355 39.8255C105.97 40.4341 105.598 41.0278 105.242 41.6661C104.945 42.1856 104.648 42.72 104.366 43.2396C104.025 43.8927 103.713 44.5755 103.402 45.2435C103.164 45.7481 102.912 46.2677 102.704 46.7872C102.229 47.9302 101.798 49.0731 101.427 50.2606C101.413 50.2161 101.398 50.1864 101.383 50.1567C101.027 49.0138 100.611 47.9005 100.151 46.8021C99.9281 46.2528 99.6609 45.7333 99.4234 45.1989C98.8862 43.981 98.2765 42.7963 97.5977 41.6513C97.2414 41.0427 96.8852 40.4341 96.4992 39.8403C96.1727 39.3356 95.8609 38.8458 95.5195 38.356C95.0742 37.7177 94.5992 37.1091 94.1242 36.5005C93.8125 36.0849 93.5008 35.6692 93.1742 35.2685C92.3875 34.3333 91.5562 33.413 90.6953 32.5372C90.3687 32.2106 90.0125 31.8989 89.6859 31.5724C89.0773 30.9935 88.4687 30.4294 87.8305 29.895C87.4148 29.5536 86.9992 29.2271 86.5836 28.8856C85.975 28.3958 85.3367 27.9356 84.6984 27.4755C84.268 27.1638 83.8375 26.8669 83.3922 26.57C82.6797 26.1099 81.9523 25.6646 81.1953 25.2341C80.8094 25.0114 80.4234 24.7739 80.0375 24.5661C78.9063 23.9535 77.7472 23.3938 76.5641 22.8888C76.3266 22.7849 76.0742 22.7106 75.8219 22.6067C74.8422 22.206 73.8328 21.8349 72.8234 21.5083C72.3781 21.3747 71.9477 21.2411 71.5023 21.1224C70.6414 20.8849 69.7805 20.6474 68.8898 20.4544C68.4148 20.3505 67.9398 20.2466 67.4648 20.1575C66.5445 19.9942 65.6094 19.8458 64.6742 19.7271C64.2437 19.6677 63.8133 19.6083 63.3828 19.5638C62.0172 19.4302 60.6367 19.356 59.2266 19.356C34.7938 19.356 14.9922 39.1724 14.9922 63.6052C14.9922 81.2544 25.3531 96.4544 40.3008 103.55C39.2855 104.222 38.452 105.135 37.8745 106.207C37.297 107.279 36.9934 108.477 36.9906 109.695V116.122L7.21406 101.472C4.43828 101.472 2.15234 104.336 2.15234 107.854V156.958C2.15234 160.461 4.43828 163.325 7.21406 163.325L37.0203 148.63V166.547C37.0203 170.614 40.3453 173.924 44.3977 173.924H162.598C166.666 173.924 169.976 170.599 169.976 166.547V109.725C169.976 106.325 167.63 103.475 164.498 102.629C178.392 95.163 187.848 80.5122 187.848 63.6497ZM59.2562 74.3669C53.3336 74.3669 48.5539 69.5724 48.5539 63.6497C48.5539 57.7271 53.3484 52.9325 59.2562 52.9325C65.1789 52.9325 69.9734 57.7271 69.9734 63.6497C69.9734 69.5575 65.1789 74.3669 59.2562 74.3669ZM80.6758 102.347C80.8687 102.243 81.0469 102.125 81.225 102.006C81.9672 101.575 82.7094 101.145 83.4219 100.67C83.8672 100.388 84.2977 100.091 84.7281 99.7794C85.3664 99.3192 85.9898 98.8591 86.6133 98.3692C87.0437 98.0427 87.4594 97.7161 87.8602 97.3747C88.4836 96.8255 89.107 96.2614 89.7156 95.6825C90.057 95.3708 90.4133 95.0591 90.725 94.7177C91.5859 93.8419 92.4172 92.9364 93.2039 92.0013C93.5305 91.6005 93.8422 91.1849 94.1539 90.7692C94.6289 90.1607 95.1039 89.5521 95.5492 88.9138C95.8906 88.4239 96.2023 87.9192 96.5289 87.4146C96.9 86.8356 97.2711 86.2271 97.6273 85.6185C97.9391 85.0841 98.2359 84.5497 98.518 84.0005C98.8594 83.3771 99.1563 82.7239 99.4531 82.0708C99.7055 81.5364 99.9578 81.0021 100.18 80.4528C100.641 79.3692 101.041 78.2411 101.413 77.113C101.427 77.0833 101.442 77.0388 101.457 77.0091C101.828 78.1817 102.259 79.3544 102.734 80.4825C102.941 81.0021 103.194 81.5067 103.431 82.0263C103.743 82.6942 104.055 83.3622 104.396 84.0153C104.663 84.5497 104.96 85.0692 105.272 85.6036C105.628 86.2271 105.999 86.8208 106.385 87.4294C106.697 87.9192 107.023 88.4239 107.35 88.8989C107.795 89.5372 108.27 90.1606 108.76 90.7841C109.072 91.1849 109.369 91.6005 109.695 91.9716C110.482 92.9216 111.313 93.8271 112.174 94.7028C112.501 95.0294 112.842 95.3263 113.184 95.638C113.792 96.2317 114.416 96.7958 115.054 97.3302C115.455 97.6716 115.87 97.9981 116.286 98.3247C116.909 98.8146 117.533 99.2896 118.186 99.7497C118.616 100.047 119.032 100.343 119.477 100.64C120.205 101.115 120.932 101.546 121.689 101.976C121.867 102.08 122.045 102.199 122.223 102.303H80.6758V102.347ZM143.598 74.3669C137.676 74.3669 132.881 69.5724 132.881 63.6497C132.881 57.7271 137.676 52.9325 143.598 52.9325C149.521 52.9325 154.316 57.7271 154.316 63.6497C154.316 69.5575 149.521 74.3669 143.598 74.3669Z" fill="#1C1B1F"/>
<path d="M11.7539 161.099L26.8203 153.677V111.135L11.7539 103.713V161.099Z" fill="#FFDE00"/>
<path d="M59.1797 75.8213C66.107 75.8213 71.7227 70.2056 71.7227 63.2783C71.7227 56.351 66.107 50.7354 59.1797 50.7354C52.2524 50.7354 46.6367 56.351 46.6367 63.2783C46.6367 70.2056 52.2524 75.8213 59.1797 75.8213Z" fill="#FFDE00"/>
<path d="M143.836 75.8213C150.763 75.8213 156.379 70.2056 156.379 63.2783C156.379 56.351 150.763 50.7354 143.836 50.7354C136.909 50.7354 131.293 56.351 131.293 63.2783C131.293 70.2056 136.909 75.8213 143.836 75.8213Z" fill="#FFDE00"/>
<path fill-rule="evenodd" clip-rule="evenodd" d="M100.5 114C96.9055 114 93.3638 114.862 90.171 116.512C86.9782 118.162 84.2271 120.553 82.1482 123.485C80.0692 126.417 78.7228 129.804 78.2217 133.363C77.7206 136.922 78.0794 140.549 79.268 143.941C80.4565 147.333 82.4404 150.39 85.0534 152.858C87.6663 155.326 90.8325 157.132 94.2867 158.125C97.7409 159.117 101.383 159.268 104.907 158.565C108.432 157.861 111.736 156.323 114.545 154.08L123.732 163.268C124.204 163.723 124.835 163.975 125.491 163.969C126.146 163.963 126.773 163.701 127.237 163.237C127.7 162.774 127.963 162.146 127.969 161.491C127.974 160.836 127.722 160.204 127.267 159.732L118.08 150.545C120.725 147.235 122.381 143.245 122.858 139.034C123.336 134.824 122.614 130.565 120.777 126.746C118.941 122.928 116.063 119.706 112.475 117.451C108.888 115.196 104.737 114 100.5 114ZM85.4995 136.5C85.4995 134.53 85.8875 132.58 86.6413 130.76C87.3951 128.94 88.5 127.286 89.8929 125.893C91.2858 124.501 92.9394 123.396 94.7593 122.642C96.5792 121.888 98.5297 121.5 100.5 121.5C102.469 121.5 104.42 121.888 106.24 122.642C108.06 123.396 109.713 124.501 111.106 125.893C112.499 127.286 113.604 128.94 114.358 130.76C115.112 132.58 115.5 134.53 115.5 136.5C115.5 140.478 113.919 144.294 111.106 147.107C108.293 149.92 104.478 151.5 100.5 151.5C96.5213 151.5 92.706 149.92 89.8929 147.107C87.0799 144.294 85.4995 140.478 85.4995 136.5Z" fill="#FFDE00"/>
<path d="M108 136.5L96.75 142.995V130.005L108 136.5Z" fill="#FFDE00"/>
</svg>
