<svg width="3819" height="2778" viewBox="0 0 3819 2778" fill="none" xmlns="http://www.w3.org/2000/svg">
<path d="M232.902 1305.43C232.902 1262.57 255.027 1235.95 286.53 1235.95C318.032 1235.95 340.223 1262.37 340.223 1305.43C340.223 1348.49 318.098 1374.97 286.53 1374.97C254.961 1374.97 232.902 1348.36 232.902 1305.43ZM330.184 1305.43C330.184 1267.25 312.419 1245.13 286.53 1245.13C260.641 1245.13 242.875 1267.25 242.875 1305.43C242.875 1343.6 260.707 1365.73 286.53 1365.73C312.353 1365.73 330.184 1343.6 330.184 1305.43Z" fill="#E0E0E0"/>
<path d="M620.71 1237.07V1374.18H610.738V1245.92H577.254V1237.07H620.71Z" fill="#E0E0E0"/>
<path d="M879.93 1305.43C879.93 1262.57 902.054 1235.95 933.557 1235.95C965.06 1235.95 987.25 1262.37 987.25 1305.43C987.25 1348.49 965.06 1374.97 933.557 1374.97C902.054 1374.97 879.93 1348.36 879.93 1305.43ZM977.212 1305.43C977.212 1267.25 959.446 1245.13 933.557 1245.13C907.668 1245.13 889.902 1267.25 889.902 1305.43C889.902 1343.6 907.734 1365.73 933.557 1365.73C959.38 1365.73 977.212 1343.6 977.212 1305.43Z" fill="#EBEBEB"/>
<path d="M1203.41 1305.43C1203.41 1262.57 1225.53 1235.95 1257.1 1235.95C1288.67 1235.95 1310.73 1262.37 1310.73 1305.43C1310.73 1348.49 1288.61 1374.97 1257.1 1374.97C1225.6 1374.97 1203.41 1348.36 1203.41 1305.43ZM1300.76 1305.43C1300.76 1267.25 1282.93 1245.13 1257.1 1245.13C1231.28 1245.13 1213.45 1267.25 1213.45 1305.43C1213.45 1343.6 1231.21 1365.73 1257.1 1365.73C1282.99 1365.73 1300.76 1343.6 1300.76 1305.43Z" fill="#E0E0E0"/>
<path d="M1584.48 1237.07V1374.18H1574.51V1245.92H1541.02V1237.07H1584.48Z" fill="#E0E0E0"/>
<path d="M1850.44 1305.43C1850.44 1262.57 1872.56 1235.95 1904.13 1235.95C1935.7 1235.95 1957.76 1262.37 1957.76 1305.43C1957.76 1348.49 1935.63 1374.97 1904.13 1374.97C1872.63 1374.97 1850.44 1348.36 1850.44 1305.43ZM1947.79 1305.43C1947.79 1267.25 1929.95 1245.13 1904.13 1245.13C1878.31 1245.13 1860.48 1267.25 1860.48 1305.43C1860.48 1343.6 1878.24 1365.73 1904.13 1365.73C1930.02 1365.73 1947.79 1343.6 1947.79 1305.43Z" fill="#EBEBEB"/>
<path d="M2173.98 1305.43C2173.98 1262.57 2196.11 1235.95 2227.61 1235.95C2259.11 1235.95 2281.3 1262.37 2281.3 1305.43C2281.3 1348.49 2259.18 1374.97 2227.61 1374.97C2196.04 1374.97 2173.98 1348.36 2173.98 1305.43ZM2271.27 1305.43C2271.27 1267.25 2253.5 1245.13 2227.61 1245.13C2201.72 1245.13 2183.96 1267.25 2183.96 1305.43C2183.96 1343.6 2201.79 1365.73 2227.61 1365.73C2253.43 1365.73 2271.27 1343.6 2271.27 1305.43Z" fill="#E0E0E0"/>
<path d="M232.902 673.657C232.902 630.795 255.027 604.179 286.53 604.179C318.032 604.179 340.223 630.597 340.223 673.657C340.223 716.717 318.098 743.201 286.53 743.201C254.961 743.201 232.902 716.585 232.902 673.657ZM330.184 673.657C330.184 635.484 312.419 613.359 286.53 613.359C260.641 613.359 242.875 635.484 242.875 673.657C242.875 711.83 260.707 734.021 286.53 734.021C312.353 734.021 330.184 711.896 330.184 673.657Z" fill="#E0E0E0"/>
<path d="M620.71 605.17V742.21H610.738V614.152H577.254V605.17H620.71Z" fill="#E0E0E0"/>
<path d="M879.93 673.657C879.93 630.795 902.054 604.179 933.557 604.179C965.06 604.179 987.25 630.597 987.25 673.657C987.25 716.717 965.126 743.201 933.557 743.201C901.988 743.201 879.93 716.585 879.93 673.657ZM977.212 673.657C977.212 635.484 959.446 613.359 933.557 613.359C907.668 613.359 889.902 635.484 889.902 673.657C889.902 711.83 907.734 734.021 933.557 734.021C959.38 734.021 977.212 711.896 977.212 673.657Z" fill="#EBEBEB"/>
<path d="M1203.41 673.657C1203.41 630.795 1225.53 604.179 1257.1 604.179C1288.67 604.179 1310.73 630.597 1310.73 673.657C1310.73 716.717 1288.61 743.201 1257.1 743.201C1225.6 743.201 1203.41 716.585 1203.41 673.657ZM1300.76 673.657C1300.76 635.484 1282.93 613.359 1257.1 613.359C1231.28 613.359 1213.45 635.484 1213.45 673.657C1213.45 711.83 1231.21 734.021 1257.1 734.021C1282.99 734.021 1300.76 711.896 1300.76 673.657Z" fill="#E0E0E0"/>
<path d="M1584.55 605.17V742.21H1574.51V614.152H1541.02V605.17H1584.55Z" fill="#E0E0E0"/>
<path d="M1850.44 673.657C1850.44 630.795 1872.56 604.179 1904.13 604.179C1935.7 604.179 1957.76 630.597 1957.76 673.657C1957.76 716.717 1935.63 743.201 1904.13 743.201C1872.63 743.201 1850.44 716.585 1850.44 673.657ZM1947.79 673.657C1947.79 635.484 1929.95 613.359 1904.13 613.359C1878.31 613.359 1860.48 635.484 1860.48 673.657C1860.48 711.83 1878.24 734.021 1904.13 734.021C1930.02 734.021 1947.79 711.896 1947.79 673.657Z" fill="#EBEBEB"/>
<path d="M2173.98 673.657C2173.98 630.795 2196.11 604.179 2227.61 604.179C2259.11 604.179 2281.3 630.597 2281.3 673.657C2281.3 716.717 2259.18 743.201 2227.61 743.201C2196.04 743.201 2173.98 716.585 2173.98 673.657ZM2271.27 673.657C2271.27 635.484 2253.5 613.359 2227.61 613.359C2201.72 613.359 2183.96 635.484 2183.96 673.657C2183.96 711.83 2201.79 734.021 2227.61 734.021C2253.43 734.021 2271.27 711.896 2271.27 673.657Z" fill="#E0E0E0"/>
<path d="M232.902 981.155C232.902 938.227 255.027 911.611 286.53 911.611C318.032 911.611 340.223 938.028 340.223 981.155C340.223 1024.28 318.098 1050.63 286.53 1050.63C254.961 1050.63 232.902 1024.02 232.902 981.155ZM330.184 981.155C330.184 942.982 312.419 920.857 286.53 920.857C260.641 920.857 242.875 942.982 242.875 981.155C242.875 1019.33 260.707 1041.45 286.53 1041.45C312.353 1041.45 330.184 1019.13 330.184 981.155Z" fill="#E0E0E0"/>
<path d="M556.383 981.155C556.383 938.227 578.507 911.611 610.076 911.611C641.645 911.611 663.703 938.028 663.703 981.155C663.703 1024.28 641.579 1050.63 610.076 1050.63C578.573 1050.63 556.383 1024.02 556.383 981.155ZM653.731 981.155C653.731 942.982 635.899 920.857 610.076 920.857C584.253 920.857 566.421 942.982 566.421 981.155C566.421 1019.33 584.187 1041.45 610.076 1041.45C635.965 1041.45 653.731 1019.13 653.731 981.155Z" fill="#EBEBEB"/>
<path d="M879.93 981.155C879.93 938.227 902.054 911.611 933.557 911.611C965.06 911.611 987.25 938.028 987.25 981.155C987.25 1024.28 965.126 1050.63 933.557 1050.63C901.988 1050.63 879.93 1024.02 879.93 981.155ZM977.212 981.155C977.212 942.982 959.446 920.857 933.557 920.857C907.668 920.857 889.902 942.982 889.902 981.155C889.902 1019.33 907.734 1041.45 933.557 1041.45C959.38 1041.45 977.212 1019.13 977.212 981.155Z" fill="#E0E0E0"/>
<path d="M1267.74 912.602V1049.64H1257.77V921.584H1224.28V912.602H1267.74Z" fill="#E0E0E0"/>
<path d="M1520.22 989.542C1520.22 946.68 1542.34 920.065 1573.85 920.065C1605.35 920.065 1627.47 946.482 1627.47 989.542C1627.47 1032.6 1605.35 1059.09 1573.85 1059.09C1542.34 1059.09 1520.22 1032.34 1520.22 989.542ZM1617.5 989.542C1617.5 951.369 1599.67 929.245 1573.85 929.245C1548.02 929.245 1530.19 951.369 1530.19 989.542C1530.19 1027.72 1548.02 1049.84 1573.85 1049.84C1599.67 1049.84 1617.5 1027.72 1617.5 989.542Z" fill="#EBEBEB"/>
<path d="M1850.44 981.155C1850.44 938.227 1872.56 911.611 1904.13 911.611C1935.7 911.611 1957.76 938.028 1957.76 981.155C1957.76 1024.28 1935.63 1050.63 1904.13 1050.63C1872.63 1050.63 1850.44 1024.02 1850.44 981.155ZM1947.79 981.155C1947.79 942.982 1929.95 920.857 1904.13 920.857C1878.31 920.857 1860.48 942.982 1860.48 981.155C1860.48 1019.33 1878.24 1041.45 1904.13 1041.45C1930.02 1041.45 1947.79 1019.13 1947.79 981.155Z" fill="#E0E0E0"/>
<path d="M2238.31 912.602V1049.64H2228.34V921.584H2194.79V912.602H2238.31Z" fill="#E0E0E0"/>
<path d="M232.902 70.4165C232.902 27.5543 255.027 0.872803 286.53 0.872803C318.032 0.872803 340.223 27.2901 340.223 70.4165C340.223 113.543 318.098 139.894 286.53 139.894C254.961 139.894 232.902 113.279 232.902 70.4165ZM330.184 70.4165C330.184 32.2434 312.419 10.1189 286.53 10.1189C260.641 10.1189 242.875 32.2434 242.875 70.4165C242.875 108.59 260.707 130.714 286.53 130.714C312.353 130.714 330.184 108.59 330.184 70.4165Z" fill="#E0E0E0"/>
<path d="M620.71 2.06152V138.969H610.738V10.9113H577.254V2.06152H620.71Z" fill="#E0E0E0"/>
<path d="M879.93 70.4165C879.93 27.5543 902.054 0.872803 933.557 0.872803C965.06 0.872803 987.25 27.2901 987.25 70.4165C987.25 113.543 965.126 139.894 933.557 139.894C901.988 139.894 879.93 113.279 879.93 70.4165ZM977.212 70.4165C977.212 32.2434 959.446 10.1189 933.557 10.1189C907.668 10.1189 889.902 32.2434 889.902 70.4165C889.902 108.59 907.734 130.714 933.557 130.714C959.38 130.714 977.212 108.59 977.212 70.4165Z" fill="#EBEBEB"/>
<path d="M1203.41 70.4165C1203.41 27.5543 1225.53 0.872803 1257.1 0.872803C1288.67 0.872803 1310.73 27.2901 1310.73 70.4165C1310.73 113.543 1288.61 139.894 1257.1 139.894C1225.6 139.894 1203.41 113.279 1203.41 70.4165ZM1300.76 70.4165C1300.76 32.2434 1282.93 10.1189 1257.1 10.1189C1231.28 10.1189 1213.45 32.2434 1213.45 70.4165C1213.45 108.59 1231.21 130.714 1257.1 130.714C1282.99 130.714 1300.76 108.59 1300.76 70.4165Z" fill="#E0E0E0"/>
<path d="M1584.55 2.06152V138.969H1574.51V10.9113H1541.02V2.06152H1584.55Z" fill="#E0E0E0"/>
<path d="M1850.44 70.4165C1850.44 27.5543 1872.56 0.872803 1904.13 0.872803C1935.7 0.872803 1957.76 27.2901 1957.76 70.4165C1957.76 113.543 1935.44 139.894 1904.13 139.894C1872.83 139.894 1850.44 113.279 1850.44 70.4165ZM1947.79 70.4165C1947.79 32.2434 1929.95 10.1189 1904.13 10.1189C1878.31 10.1189 1860.48 32.2434 1860.48 70.4165C1860.48 108.59 1878.24 130.714 1904.13 130.714C1930.02 130.714 1947.79 108.59 1947.79 70.4165Z" fill="#EBEBEB"/>
<path d="M2173.98 70.4165C2173.98 27.5543 2196.11 0.872803 2227.61 0.872803C2259.11 0.872803 2281.3 27.2901 2281.3 70.4165C2281.3 113.543 2259.05 139.894 2227.61 139.894C2196.17 139.894 2173.98 113.279 2173.98 70.4165ZM2271.27 70.4165C2271.27 32.2434 2253.5 10.1189 2227.61 10.1189C2201.72 10.1189 2183.96 32.2434 2183.96 70.4165C2183.96 108.59 2201.79 130.714 2227.61 130.714C2253.43 130.714 2271.27 108.59 2271.27 70.4165Z" fill="#E0E0E0"/>
<path d="M232.902 377.849C232.902 334.986 255.027 308.371 286.53 308.371C318.032 308.371 340.223 334.788 340.223 377.849C340.223 420.909 318.098 447.392 286.53 447.392C254.961 447.392 232.902 420.711 232.902 377.849ZM330.184 377.849C330.184 339.675 312.419 317.551 286.53 317.551C260.641 317.551 242.875 339.675 242.875 377.849C242.875 416.022 260.707 438.146 286.53 438.146C312.353 438.146 330.184 416.022 330.184 377.849Z" fill="#E0E0E0"/>
<path d="M556.383 377.849C556.383 334.986 578.507 308.371 610.076 308.371C641.645 308.371 663.703 334.788 663.703 377.849C663.703 420.909 641.579 447.392 610.076 447.392C578.573 447.392 556.383 420.711 556.383 377.849ZM653.731 377.849C653.731 339.675 635.899 317.551 610.076 317.551C584.253 317.551 566.421 339.675 566.421 377.849C566.421 416.022 584.187 438.146 610.076 438.146C635.965 438.146 653.731 416.022 653.731 377.849Z" fill="#EBEBEB"/>
<path d="M879.93 377.849C879.93 334.986 902.054 308.371 933.557 308.371C965.06 308.371 987.25 334.788 987.25 377.849C987.25 420.909 965.126 447.392 933.557 447.392C901.988 447.392 879.93 420.711 879.93 377.849ZM977.212 377.849C977.212 339.675 959.446 317.551 933.557 317.551C907.668 317.551 889.902 339.675 889.902 377.849C889.902 416.022 907.734 438.146 933.557 438.146C959.38 438.146 977.212 416.022 977.212 377.849Z" fill="#E0E0E0"/>
<path d="M1267.74 309.295V446.402H1257.77V318.343H1224.28V309.295H1267.74Z" fill="#E0E0E0"/>
<path d="M1520.22 386.302C1520.22 343.374 1542.34 316.758 1573.85 316.758C1605.35 316.758 1627.47 343.176 1627.47 386.302C1627.47 429.428 1605.22 455.78 1573.85 455.78C1542.48 455.78 1520.22 429.164 1520.22 386.302ZM1617.5 386.302C1617.5 348.063 1599.67 326.004 1573.85 326.004C1548.02 326.004 1530.19 348.063 1530.19 386.302C1530.19 424.541 1548.02 446.6 1573.85 446.6C1599.67 446.6 1617.5 424.739 1617.5 386.302Z" fill="#EBEBEB"/>
<path d="M1850.44 377.849C1850.44 334.986 1872.56 308.371 1904.13 308.371C1935.7 308.371 1957.76 334.788 1957.76 377.849C1957.76 420.909 1935.63 447.392 1904.13 447.392C1872.63 447.392 1850.44 420.711 1850.44 377.849ZM1947.79 377.849C1947.79 339.675 1929.95 317.551 1904.13 317.551C1878.31 317.551 1860.48 339.675 1860.48 377.849C1860.48 416.022 1878.24 438.146 1904.13 438.146C1930.02 438.146 1947.79 416.022 1947.79 377.849Z" fill="#E0E0E0"/>
<path d="M2238.31 309.295V446.402H2228.34V318.343H2194.79V309.295H2238.31Z" fill="#E0E0E0"/>
<path d="M2499.97 1305.43C2499.97 1262.57 2522.1 1235.95 2553.6 1235.95C2585.1 1235.95 2607.29 1262.37 2607.29 1305.43C2607.29 1348.49 2585.17 1374.97 2553.6 1374.97C2522.03 1374.97 2499.97 1348.36 2499.97 1305.43ZM2597.25 1305.43C2597.25 1267.25 2579.49 1245.13 2553.6 1245.13C2527.71 1245.13 2509.95 1267.25 2509.95 1305.43C2509.95 1343.6 2527.78 1365.73 2553.6 1365.73C2579.42 1365.73 2597.25 1343.6 2597.25 1305.43Z" fill="#EBEBEB"/>
<path d="M2823.52 1305.43C2823.52 1262.57 2845.58 1235.95 2877.15 1235.95C2908.72 1235.95 2930.77 1262.37 2930.77 1305.43C2930.77 1348.49 2908.65 1374.97 2877.15 1374.97C2845.64 1374.97 2823.52 1348.36 2823.52 1305.43ZM2920.8 1305.43C2920.8 1267.25 2902.97 1245.13 2877.15 1245.13C2851.32 1245.13 2833.49 1267.25 2833.49 1305.43C2833.49 1343.6 2851.32 1365.73 2877.15 1365.73C2902.97 1365.73 2920.8 1343.6 2920.8 1305.43Z" fill="#E0E0E0"/>
<path d="M3204.59 1237.07V1374.18H3194.55V1245.92H3161.07V1237.07H3204.59Z" fill="#E0E0E0"/>
<path d="M3470.55 1305.43C3470.55 1262.57 3492.61 1235.95 3524.17 1235.95C3555.74 1235.95 3577.8 1262.37 3577.8 1305.43C3577.8 1348.49 3555.68 1374.97 3524.17 1374.97C3492.67 1374.97 3470.55 1348.36 3470.55 1305.43ZM3567.83 1305.43C3567.83 1267.25 3550 1245.13 3524.17 1245.13C3498.35 1245.13 3480.52 1267.25 3480.52 1305.43C3480.52 1343.6 3498.35 1365.73 3524.17 1365.73C3550 1365.73 3567.83 1343.6 3567.83 1305.43Z" fill="#EBEBEB"/>
<path d="M2499.97 673.657C2499.97 630.795 2522.1 604.179 2553.6 604.179C2585.1 604.179 2607.29 630.597 2607.29 673.657C2607.29 716.717 2585.17 743.201 2553.6 743.201C2522.03 743.201 2499.97 716.585 2499.97 673.657ZM2597.25 673.657C2597.25 635.484 2579.49 613.359 2553.6 613.359C2527.71 613.359 2509.95 635.484 2509.95 673.657C2509.95 711.83 2527.78 734.021 2553.6 734.021C2579.42 734.021 2597.25 711.896 2597.25 673.657Z" fill="#EBEBEB"/>
<path d="M2823.52 673.657C2823.52 630.795 2845.58 604.179 2877.15 604.179C2908.72 604.179 2930.77 630.597 2930.77 673.657C2930.77 716.717 2908.65 743.201 2877.15 743.201C2845.64 743.201 2823.52 716.585 2823.52 673.657ZM2920.8 673.657C2920.8 635.484 2902.97 613.359 2877.15 613.359C2851.32 613.359 2833.49 635.484 2833.49 673.657C2833.49 711.83 2851.32 734.021 2877.15 734.021C2902.97 734.021 2920.8 711.896 2920.8 673.657Z" fill="#E0E0E0"/>
<path d="M3204.59 605.17V742.21H3194.55V614.152H3161.07V605.17H3204.59Z" fill="#E0E0E0"/>
<path d="M3470.55 673.657C3470.55 630.795 3492.67 604.179 3524.17 604.179C3555.68 604.179 3577.8 630.597 3577.8 673.657C3577.8 716.717 3555.68 743.201 3524.17 743.201C3492.67 743.201 3470.55 716.585 3470.55 673.657ZM3567.83 673.657C3567.83 635.484 3550 613.359 3524.17 613.359C3498.35 613.359 3480.52 635.484 3480.52 673.657C3480.52 711.83 3498.35 734.021 3524.17 734.021C3550 734.021 3567.83 711.896 3567.83 673.657Z" fill="#EBEBEB"/>
<path d="M2499.97 981.155C2499.97 938.227 2522.1 911.611 2553.6 911.611C2585.1 911.611 2607.29 938.028 2607.29 981.155C2607.29 1024.28 2585.17 1050.63 2553.6 1050.63C2522.03 1050.63 2499.97 1024.02 2499.97 981.155ZM2597.32 981.155C2597.32 942.982 2579.49 920.857 2553.6 920.857C2527.71 920.857 2509.95 942.982 2509.95 981.155C2509.95 1019.33 2527.78 1041.45 2553.6 1041.45C2579.42 1041.45 2597.32 1019.13 2597.32 981.155Z" fill="#E0E0E0"/>
<path d="M2887.78 912.602V1049.64H2877.81V921.584H2844.32V912.602H2887.78Z" fill="#E0E0E0"/>
<path d="M3140.27 989.542C3140.27 946.68 3162.39 920.065 3193.89 920.065C3225.4 920.065 3247.59 946.482 3247.59 989.542C3247.59 1032.6 3225.4 1059.09 3193.89 1059.09C3162.39 1059.09 3140.27 1032.34 3140.27 989.542ZM3237.55 989.542C3237.55 951.369 3219.78 929.245 3193.89 929.245C3168 929.245 3150.24 951.369 3150.24 989.542C3150.24 1027.72 3168.07 1049.84 3193.89 1049.84C3219.72 1049.84 3237.55 1027.72 3237.55 989.542Z" fill="#EBEBEB"/>
<path d="M3470.55 981.155C3470.55 938.227 3492.67 911.611 3524.17 911.611C3555.68 911.611 3577.8 938.028 3577.8 981.155C3577.8 1024.28 3555.68 1050.63 3524.17 1050.63C3492.67 1050.63 3470.55 1024.02 3470.55 981.155ZM3567.83 981.155C3567.83 942.982 3550 920.857 3524.17 920.857C3498.35 920.857 3480.52 942.982 3480.52 981.155C3480.52 1019.33 3498.35 1041.45 3524.17 1041.45C3550 1041.45 3567.83 1019.13 3567.83 981.155Z" fill="#E0E0E0"/>
<path d="M2499.97 70.4165C2499.97 27.5543 2522.1 0.872803 2553.6 0.872803C2585.1 0.872803 2607.29 27.2901 2607.29 70.4165C2607.29 113.543 2585.17 139.894 2553.6 139.894C2522.03 139.894 2499.97 113.279 2499.97 70.4165ZM2597.25 70.4165C2597.25 32.2434 2579.49 10.1189 2553.6 10.1189C2527.71 10.1189 2510.01 32.2434 2510.01 70.4165C2510.01 108.59 2527.84 130.714 2553.67 130.714C2579.49 130.714 2597.25 108.59 2597.25 70.4165Z" fill="#EBEBEB"/>
<path d="M2823.52 70.4165C2823.52 27.5543 2845.58 0.872803 2877.15 0.872803C2908.72 0.872803 2930.77 27.2901 2930.77 70.4165C2930.77 113.543 2908.65 139.894 2877.15 139.894C2845.64 139.894 2823.52 113.279 2823.52 70.4165ZM2920.8 70.4165C2920.8 32.2434 2902.97 10.1189 2877.15 10.1189C2851.32 10.1189 2833.62 32.2434 2833.62 70.4165C2833.62 108.59 2851.46 130.714 2877.28 130.714C2903.1 130.714 2920.8 108.59 2920.8 70.4165Z" fill="#E0E0E0"/>
<path d="M3204.59 2.06152V138.969H3194.55V10.9113H3161.07V2.06152H3204.59Z" fill="#E0E0E0"/>
<path d="M3470.55 70.4165C3470.55 27.5543 3492.67 0.872803 3524.17 0.872803C3555.68 0.872803 3577.8 27.2901 3577.8 70.4165C3577.8 113.543 3555.68 139.894 3524.17 139.894C3492.67 139.894 3470.55 113.279 3470.55 70.4165ZM3567.83 70.4165C3567.83 32.2434 3550 10.1189 3524.17 10.1189C3498.35 10.1189 3480.85 32.2434 3480.85 70.4165C3480.85 108.59 3498.68 130.714 3524.5 130.714C3550.33 130.714 3567.83 108.59 3567.83 70.4165Z" fill="#EBEBEB"/>
<path d="M2499.97 377.849C2499.97 334.986 2522.1 308.371 2553.6 308.371C2585.1 308.371 2607.29 334.788 2607.29 377.849C2607.29 420.909 2585.17 447.392 2553.6 447.392C2522.03 447.392 2499.97 420.711 2499.97 377.849ZM2597.32 377.849C2597.32 339.675 2579.49 317.551 2553.6 317.551C2527.71 317.551 2510.01 339.675 2510.01 377.849C2510.01 416.022 2527.84 438.146 2553.67 438.146C2579.49 438.146 2597.32 416.022 2597.32 377.849Z" fill="#E0E0E0"/>
<path d="M2887.78 309.295V446.402H2877.81V318.343H2844.32V309.295H2887.78Z" fill="#E0E0E0"/>
<path d="M3140.27 386.302C3140.27 343.374 3162.39 316.758 3193.89 316.758C3225.4 316.758 3247.59 343.176 3247.59 386.302C3247.59 429.428 3225.4 455.78 3193.89 455.78C3162.39 455.78 3140.27 429.164 3140.27 386.302ZM3237.55 386.302C3237.55 348.063 3219.78 326.004 3193.89 326.004C3168 326.004 3150.24 348.063 3150.24 386.302C3150.24 424.541 3168.07 446.6 3193.89 446.6C3219.72 446.6 3237.55 424.739 3237.55 386.302Z" fill="#EBEBEB"/>
<path d="M3470.55 377.849C3470.55 334.986 3492.67 308.371 3524.17 308.371C3555.68 308.371 3577.8 334.788 3577.8 377.849C3577.8 420.909 3555.68 447.392 3524.17 447.392C3492.67 447.392 3470.55 420.711 3470.55 377.849ZM3567.83 377.849C3567.83 339.675 3550 317.551 3524.17 317.551C3498.35 317.551 3480.85 339.675 3480.85 377.849C3480.85 416.022 3498.68 438.146 3524.5 438.146C3550.33 438.146 3567.83 416.022 3567.83 377.849Z" fill="#E0E0E0"/>
<path d="M3127.45 531.862H664.694C611.55 531.862 568.469 574.943 568.469 628.087V2191.47C568.469 2244.61 611.55 2287.69 664.694 2287.69H3127.45C3180.6 2287.69 3223.68 2244.61 3223.68 2191.47V628.087C3223.68 574.943 3180.6 531.862 3127.45 531.862Z" fill="#263238"/>
<path d="M457.449 2157.85H3334.17V2193.98C3334.17 2225.15 3321.78 2255.05 3299.73 2277.1C3277.69 2299.15 3247.79 2311.53 3216.61 2311.53H574.94C543.762 2311.53 513.861 2299.15 491.815 2277.1C469.768 2255.05 457.383 2225.15 457.383 2193.98V2157.85H457.449Z" fill="#263238"/>
<path d="M3145.02 601.669H639.793V2084.48H3145.02V601.669Z" fill="#E0E0E0"/>
<path d="M1634.34 2157.85L1670.01 2214.65H2172.33L2205.49 2157.85H1634.34Z" fill="#455A64"/>
<path d="M3076.93 651.862H712.971C701.044 651.862 691.375 661.531 691.375 673.459V2058.12C691.375 2070.05 701.044 2079.72 712.971 2079.72H3076.93C3088.86 2079.72 3098.52 2070.05 3098.52 2058.12V673.459C3098.52 661.531 3088.86 651.862 3076.93 651.862Z" fill="#455A64"/>
<path d="M3098.52 756.475H691.375V2079.72H3098.52V756.475Z" fill="#FAFAFA"/>
<path d="M888.777 707.009C888.764 710.807 887.626 714.516 885.506 717.668C883.386 720.82 880.38 723.273 876.867 724.717C873.354 726.162 869.492 726.533 865.769 725.784C862.045 725.035 858.627 723.199 855.946 720.509C853.264 717.819 851.441 714.394 850.704 710.668C849.968 706.942 850.353 703.081 851.809 699.573C853.266 696.065 855.729 693.067 858.888 690.958C862.047 688.85 865.76 687.724 869.558 687.724C872.088 687.724 874.592 688.223 876.928 689.193C879.264 690.163 881.386 691.585 883.171 693.376C884.957 695.168 886.371 697.294 887.333 699.634C888.295 701.973 888.786 704.479 888.777 707.009Z" fill="#FFDE00"/>
<path d="M772.277 707.009C772.264 710.807 771.126 714.516 769.006 717.668C766.886 720.82 763.88 723.273 760.367 724.717C756.854 726.162 752.992 726.533 749.269 725.784C745.545 725.035 742.127 723.199 739.446 720.509C736.764 717.819 734.941 714.394 734.204 710.668C733.468 706.942 733.853 703.081 735.309 699.573C736.766 696.065 739.229 693.067 742.388 690.958C745.547 688.85 749.26 687.724 753.058 687.724C755.588 687.724 758.092 688.223 760.428 689.193C762.764 690.163 764.886 691.585 766.671 693.376C768.457 695.168 769.871 697.294 770.833 699.634C771.795 701.973 772.286 704.479 772.277 707.009Z" fill="#FFDE00"/>
<path d="M828.218 707.009C828.205 710.807 827.067 714.516 824.947 717.668C822.828 720.82 819.822 723.273 816.309 724.717C812.796 726.162 808.934 726.533 805.21 725.784C801.486 725.035 798.068 723.199 795.387 720.509C792.706 717.819 790.882 714.394 790.146 710.668C789.41 706.942 789.794 703.081 791.251 699.573C792.707 696.065 795.17 693.067 798.329 690.958C801.488 688.85 805.202 687.724 809 687.724C811.529 687.724 814.034 688.223 816.37 689.193C818.706 690.163 820.827 691.585 822.613 693.376C824.398 695.168 825.812 697.294 826.774 699.634C827.736 701.973 828.227 704.479 828.218 707.009Z" fill="#FFDE00"/>
<path d="M2491.85 1307.61L2499.31 1307.01C2501.76 1307.01 2504.8 1306.22 2508.43 1305.63C2512.53 1304.66 2516.57 1303.42 2520.51 1301.93C2531.6 1297.66 2541.61 1291.01 2549.84 1282.44C2555.04 1276.99 2559.48 1270.86 2563.05 1264.22C2567.01 1256.59 2569.75 1248.39 2571.17 1239.91C2573.03 1229.01 2572.61 1217.84 2569.96 1207.11C2567.3 1196.38 2562.46 1186.3 2555.74 1177.53C2549.01 1168.75 2540.54 1161.45 2530.87 1156.1C2521.2 1150.74 2510.52 1147.44 2499.51 1146.4C2492.91 1145.93 2486.3 1146 2479.7 1146H2416.23H2322.71L1298.12 1146.46C1279.71 1146.55 1261.89 1152.99 1247.67 1164.68C1233.45 1176.37 1223.7 1192.61 1220.05 1210.66C1217.74 1222.45 1218.07 1234.61 1221.04 1246.25C1225.58 1263.46 1235.74 1278.66 1249.91 1289.43C1264.08 1300.2 1281.44 1305.93 1299.24 1305.69H1334.77H1606.8L2067.46 1306.02L2377.86 1306.62H2462.26H2484.26H2491.72C2491.72 1306.62 2489.21 1306.62 2484.26 1306.62H2462.26L2377.86 1306.95L2067.46 1307.48L1606.8 1307.87H1299.24C1287.01 1308.08 1274.89 1305.53 1263.77 1300.41C1252.46 1295.32 1242.43 1287.75 1234.42 1278.26C1226.42 1268.77 1220.65 1257.61 1217.54 1245.59C1214.36 1233.42 1214 1220.68 1216.51 1208.35C1219.02 1196.02 1224.32 1184.42 1232.01 1174.46C1239.78 1164.34 1249.78 1156.13 1261.24 1150.49C1272.69 1144.84 1285.28 1141.91 1298.05 1141.9L2322.65 1142.43H2416.17H2479.77C2486.37 1142.43 2492.97 1142.43 2499.58 1142.9C2512.98 1144.25 2525.85 1148.88 2537.05 1156.38C2548.24 1163.88 2557.42 1174.01 2563.78 1185.89C2570.14 1197.77 2573.49 1211.03 2573.52 1224.5C2573.55 1237.98 2570.27 1251.25 2563.97 1263.16C2560.27 1269.86 2555.72 1276.05 2550.43 1281.59C2542 1290.14 2531.82 1296.77 2520.58 1301C2516.57 1302.46 2512.47 1303.66 2508.3 1304.57C2504.66 1305.1 2501.69 1305.63 2499.18 1305.82C2494.43 1307.61 2491.85 1307.61 2491.85 1307.61Z" fill="#263238"/>
<path d="M2491.85 1307.61H2335.66V1145.01H2491.85C2513.41 1145.01 2534.09 1153.57 2549.34 1168.82C2564.58 1184.07 2573.15 1204.75 2573.15 1226.31C2573.15 1247.87 2564.58 1268.55 2549.34 1283.8C2534.09 1299.04 2513.41 1307.61 2491.85 1307.61Z" fill="#FFDE00"/>
<path d="M2464.57 1210.99C2464.24 1210.99 2464.24 1208.28 2462.92 1203.59C2461.03 1197.09 2457.03 1191.4 2451.56 1187.41C2448.18 1184.88 2444.3 1183.11 2440.17 1182.21C2436.05 1181.31 2431.78 1181.31 2427.65 1182.21C2423.52 1183.11 2419.64 1184.88 2416.26 1187.42C2412.88 1189.95 2410.08 1193.17 2408.06 1196.88C2406.04 1200.59 2404.84 1204.68 2404.54 1208.9C2404.23 1213.11 2404.84 1217.33 2406.32 1221.29C2407.8 1225.25 2410.11 1228.84 2413.09 1231.82C2416.08 1234.81 2419.67 1237.12 2423.63 1238.59C2428.26 1240.29 2433.24 1240.81 2438.12 1240.12C2443.01 1239.43 2447.65 1237.54 2451.63 1234.63C2457.07 1230.6 2461.04 1224.89 2462.92 1218.38C2464.24 1213.76 2464.24 1210.99 2464.57 1210.99C2464.7 1211.66 2464.7 1212.36 2464.57 1213.03C2464.68 1214.94 2464.5 1216.86 2464.05 1218.71C2462.52 1225.78 2458.57 1232.08 2452.88 1236.54C2448.62 1239.88 2443.58 1242.09 2438.24 1242.97C2432.89 1243.85 2427.41 1243.36 2422.31 1241.56C2416 1239.32 2410.55 1235.18 2406.69 1229.71C2402.84 1224.24 2400.77 1217.71 2400.77 1211.02C2400.77 1204.33 2402.84 1197.8 2406.69 1192.33C2410.55 1186.86 2416 1182.72 2422.31 1180.47C2427.41 1178.65 2432.89 1178.14 2438.23 1179.01C2443.58 1179.87 2448.62 1182.08 2452.88 1185.43C2458.56 1189.9 2462.5 1196.2 2464.05 1203.26C2464.5 1205.14 2464.68 1207.07 2464.57 1209C2464.7 1209.66 2464.7 1210.33 2464.57 1210.99Z" fill="white"/>
<path d="M2506.11 1262.7C2497.22 1258.71 2488.81 1253.75 2481.02 1247.9C2472.64 1243.01 2464.86 1237.16 2457.84 1230.47C2475.18 1239.28 2491.39 1250.17 2506.11 1262.9V1262.7Z" fill="white"/>
<path d="M1317.73 1272.01C1316.02 1256.66 1315.45 1241.21 1316.01 1225.78C1315.44 1210.35 1316.02 1194.9 1317.73 1179.55C1319.44 1194.9 1320.02 1210.35 1319.45 1225.78C1320.02 1241.21 1319.44 1256.66 1317.73 1272.01Z" fill="#455A64"/>
<path d="M1510.25 1588.03H1120V1965.6H1510.25V1588.03Z" fill="#E0E0E0"/>
<path d="M1150.31 1933.3L1258.22 1739L1346.52 1863.16L1400.22 1797.25L1480 1933.3H1150.31Z" fill="#FFDE00"/>
<path d="M1384.17 1701.23C1384.18 1706.8 1382.54 1712.24 1379.46 1716.88C1376.37 1721.52 1371.98 1725.13 1366.83 1727.27C1361.69 1729.41 1356.03 1729.97 1350.56 1728.89C1345.1 1727.81 1340.08 1725.12 1336.14 1721.19C1332.2 1717.25 1329.52 1712.23 1328.44 1706.76C1327.36 1701.3 1327.92 1695.64 1330.06 1690.49C1332.19 1685.35 1335.81 1680.96 1340.45 1677.87C1345.08 1674.79 1350.53 1673.14 1356.1 1673.16C1363.55 1673.16 1370.69 1676.11 1375.95 1681.38C1381.21 1686.64 1384.17 1693.78 1384.17 1701.23Z" fill="#FFDE00"/>
<path d="M1479.74 1934.36C1479.74 1934.36 1479.74 1933.76 1479.74 1932.77C1479.74 1931.78 1479.74 1930.2 1479.74 1928.42C1479.74 1924.36 1479.74 1918.69 1479.74 1911.38C1479.74 1896.45 1479.74 1874.79 1479.27 1847.31C1479.27 1792.17 1478.81 1713.58 1478.48 1619.33L1480.07 1620.92H1150.38C1149.92 1621.31 1153.88 1617.42 1152.23 1619.13V1661.73C1152.23 1675.91 1152.23 1689.93 1152.23 1703.8V1785.23C1152.23 1838.07 1152.23 1888.06 1152.23 1934.1L1150.64 1932.44L1388.99 1933.3L1456.29 1933.7H1474.12H1478.75H1480.33H1478.94H1474.45H1456.95L1390.05 1934.16L1150.64 1934.95H1148.99V1933.37C1148.99 1887.14 1148.99 1837.34 1148.99 1784.51V1704.13C1148.99 1690.26 1148.99 1676.24 1148.99 1662.06V1619.46C1147.34 1621.05 1151.3 1617.09 1150.91 1617.55H1480.59H1482.25V1619.13C1481.85 1713.84 1481.58 1792.7 1481.39 1848.11C1481.39 1875.45 1481.06 1896.98 1480.99 1911.84C1480.99 1919.04 1480.99 1924.58 1480.99 1928.55C1480.99 1930.33 1480.99 1931.72 1480.99 1932.77C1480.67 1933.37 1480.25 1933.91 1479.74 1934.36Z" fill="#455A64"/>
<path d="M2131.45 1588.03H1741.2V1965.6H2131.45V1588.03Z" fill="#FFDE00"/>
<path d="M1771.45 1933.3L1879.43 1739L1967.73 1863.16L2021.36 1797.25L2101.2 1933.3H1771.45Z" fill="#E0E0E0"/>
<path d="M2005.31 1701.23C2005.31 1706.78 2003.66 1712.2 2000.58 1716.82C1997.49 1721.44 1993.11 1725.03 1987.98 1727.16C1982.85 1729.28 1977.21 1729.84 1971.76 1728.75C1966.32 1727.67 1961.32 1725 1957.39 1721.07C1953.47 1717.15 1950.79 1712.15 1949.71 1706.7C1948.63 1701.26 1949.18 1695.61 1951.31 1690.48C1953.43 1685.36 1957.03 1680.97 1961.65 1677.89C1966.26 1674.8 1971.69 1673.16 1977.24 1673.16C1984.68 1673.16 1991.82 1676.11 1997.09 1681.38C2002.35 1686.64 2005.31 1693.78 2005.31 1701.23Z" fill="#E0E0E0"/>
<path d="M2101.2 1934.36C2101.2 1934.36 2101.2 1933.76 2101.2 1932.77C2101.2 1931.78 2101.2 1930.2 2101.2 1928.42C2101.2 1924.36 2101.2 1918.69 2101.2 1911.38C2101.2 1896.45 2101.2 1874.79 2100.81 1847.31C2100.81 1792.17 2100.34 1713.58 2100.01 1619.33L2101.6 1620.92H1771.91L1773.69 1619.13V1703.8C1773.69 1731.54 1773.69 1758.66 1773.69 1785.17C1773.69 1838 1773.69 1888 1773.69 1934.03L1772.04 1932.38L2010.46 1933.24L2077.69 1933.63H2095.52H2100.15H2101.8H2100.34H2095.92H2078.35L2011.51 1934.1L1772.04 1934.89H1770.46V1933.3C1770.46 1887.07 1770.46 1837.28 1770.46 1784.44C1770.46 1758.02 1770.46 1730.9 1770.46 1703.08V1619.46C1768.81 1621.05 1772.7 1617.09 1772.37 1617.55H2102.06H2103.65V1619.13C2103.65 1713.84 2103.05 1792.7 2102.85 1848.11C2102.85 1875.45 2102.52 1896.98 2102.39 1911.84C2102.39 1919.04 2102.39 1924.58 2102.39 1928.55C2102.39 1930.33 2102.39 1931.72 2102.39 1932.77C2102.04 1933.34 2101.65 1933.87 2101.2 1934.36Z" fill="#455A64"/>
<path d="M2752.66 1588.03H2362.41V1965.6H2752.66V1588.03Z" fill="#E0E0E0"/>
<path d="M2392.65 1933.3L2500.57 1739L2588.87 1863.16L2642.56 1797.25L2722.34 1933.3H2392.65Z" fill="#FFDE00"/>
<path d="M2626.51 1701.23C2626.52 1706.8 2624.88 1712.24 2621.8 1716.88C2618.71 1721.52 2614.32 1725.13 2609.17 1727.27C2604.03 1729.41 2598.37 1729.97 2592.9 1728.89C2587.44 1727.81 2582.42 1725.12 2578.48 1721.19C2574.54 1717.25 2571.86 1712.23 2570.78 1706.76C2569.7 1701.3 2570.26 1695.64 2572.4 1690.49C2574.53 1685.35 2578.15 1680.96 2582.79 1677.87C2587.42 1674.79 2592.87 1673.14 2598.44 1673.16C2605.89 1673.16 2613.03 1676.11 2618.29 1681.38C2623.55 1686.64 2626.51 1693.78 2626.51 1701.23Z" fill="#FFDE00"/>
<path d="M2722.41 1934.36C2722.36 1933.83 2722.36 1933.3 2722.41 1932.77C2722.41 1931.65 2722.41 1930.2 2722.41 1928.42C2722.41 1924.36 2722.41 1918.69 2722.41 1911.38C2722.41 1896.45 2722.41 1874.79 2722.01 1847.31C2722.01 1792.17 2721.48 1713.58 2721.15 1619.33L2722.8 1620.92H2393.05C2392.65 1621.31 2396.55 1617.42 2394.9 1619.13V1703.8C2394.9 1731.54 2394.9 1758.66 2394.9 1785.17C2394.9 1838 2394.9 1888 2394.9 1934.03L2393.31 1932.38L2631.73 1933.24L2698.96 1933.63H2716.79H2721.42H2723.07H2721.61H2717.12H2699.62L2632.72 1934.1L2393.31 1934.89H2391.13V1933.3C2391.13 1887.07 2391.13 1837.28 2391.13 1784.44C2391.13 1758.02 2391.13 1730.9 2391.13 1703.08V1619.46C2389.48 1621.05 2393.38 1617.09 2392.98 1617.55H2722.74H2724.32V1619.13C2724.32 1713.84 2723.66 1792.7 2723.46 1848.11C2723.46 1875.45 2723.46 1896.98 2723.07 1911.84C2723.07 1919.04 2723.07 1924.58 2723.07 1928.55C2723.07 1930.33 2723.07 1931.72 2723.07 1932.77C2723.07 1933.83 2722.41 1934.36 2722.41 1934.36Z" fill="#455A64"/>
<path d="M2142.09 953.879H1647.82V995.288H2142.09V953.879Z" fill="#455A64"/>
<path d="M3200.89 2157.85C3200.89 2158.84 2611.52 2159.57 1884.71 2159.57C1157.91 2159.57 568.469 2158.84 568.469 2157.85C568.469 2156.86 1157.71 2156.13 1884.71 2156.13C2611.72 2156.13 3200.89 2156.93 3200.89 2157.85Z" fill="#455A64"/>
<path d="M192.614 1434.81C155.233 1440.88 138.524 1486.85 141.761 1524.56C144.997 1562.27 160.583 1599.25 156.422 1636.83C151.139 1684.65 115.013 1725.07 110.786 1773.01C105.833 1829.55 145.789 1879.67 157.743 1935.15C163.555 1962.16 162.696 1990.69 172.735 2016.38C181.27 2038.31 197.152 2056.6 217.669 2068.11C238.187 2079.63 262.067 2083.67 285.23 2079.54C308.394 2075.4 329.404 2063.36 344.673 2045.46C359.943 2027.55 368.523 2004.91 368.95 1981.38C369.742 1937.99 342.995 1897.11 346.231 1853.79C348.608 1821.82 367.365 1791.44 363.402 1759.61C358.581 1721.77 323.776 1694.89 311.096 1658.76C298.415 1622.63 310.633 1582.81 306.341 1544.83C298.68 1476.74 260.903 1429.33 192.614 1434.74" fill="#FFDE00"/>
<path d="M1.61806 1764.5C-4.98628 1827.57 23.1482 1901.8 55.5755 1956.02C88.4163 2010.85 137.876 2053.79 196.776 2078.6C203.381 2081.37 211.636 2083.68 217.184 2079.19C219.15 2077.02 220.627 2074.45 221.516 2071.66C222.405 2068.87 222.684 2065.92 222.335 2063.01C222.79 1996.04 201.528 1930.73 161.735 1876.86C121.942 1823 65.7632 1783.48 1.61806 1764.23" fill="#FFDE00"/>
<path opacity="0.2" d="M1.61806 1764.5C-4.98628 1827.57 23.1482 1901.8 55.5755 1956.02C88.4163 2010.85 137.876 2053.79 196.776 2078.6C203.381 2081.37 211.636 2083.68 217.184 2079.19C219.15 2077.02 220.627 2074.45 221.516 2071.66C222.405 2068.87 222.684 2065.92 222.335 2063.01C222.79 1996.04 201.528 1930.73 161.735 1876.86C121.942 1823 65.7632 1783.48 1.61806 1764.23" fill="black"/>
<path d="M276.425 2210.75C275.685 2209.66 275.086 2208.49 274.642 2207.25L270.085 2196.88C266.321 2187.9 260.641 2174.96 253.442 2159.04C234.654 2117.58 213.757 2077.11 190.833 2037.78C167.774 1998.6 142.756 1960.59 115.874 1923.92C105.571 1909.79 97.0515 1898.5 91.0416 1890.9L84.4373 1881.92C83.5705 1880.92 82.8379 1879.81 82.2578 1878.62C83.295 1879.45 84.2266 1880.4 85.0316 1881.46L92.3624 1890.04C98.6366 1897.51 107.486 1908.6 118.119 1922.54C145.578 1958.91 170.872 1996.86 193.871 2036.2C216.896 2075.62 237.56 2116.37 255.754 2158.25C262.358 2174.36 268.038 2187.44 271.406 2196.68C272.991 2200.98 274.246 2204.48 275.303 2207.25C275.823 2208.36 276.2 2209.54 276.425 2210.75Z" fill="#263238"/>
<path d="M235.806 1609.36C236.176 1611.37 236.397 1613.4 236.467 1615.44C236.467 1619.73 237.193 1625.47 237.721 1632.8C238.712 1648.19 240.099 1669.99 241.882 1696.73C245.25 1750.69 250.072 1825.26 255.817 1907.55C261.563 1989.84 267.309 2064.4 271.536 2118.36C273.583 2144.77 275.234 2166.77 276.423 2182.22C276.885 2189.48 277.281 2195.43 277.612 2199.59C277.772 2201.61 277.772 2203.64 277.612 2205.67C277.174 2203.69 276.887 2201.68 276.753 2199.66C276.291 2195.36 275.696 2189.62 274.904 2182.35L268.894 2118.55C264.007 2064.66 257.931 1990.17 252.119 1907.81C246.307 1825.45 241.948 1750.89 238.91 1696.87C237.655 1670.12 236.665 1648.32 235.938 1632.87C235.674 1625.52 235.476 1619.71 235.344 1615.44C235.339 1613.4 235.493 1611.37 235.806 1609.36Z" fill="#263238"/>
<path d="M177.754 2120.8H335.73V2236.77C335.73 2246.73 333.769 2256.59 329.958 2265.79C326.148 2274.98 320.564 2283.34 313.523 2290.38C306.483 2297.42 298.125 2303.01 288.926 2306.82C279.727 2310.63 269.868 2312.59 259.912 2312.59C240.52 2312.59 221.866 2305.16 207.779 2291.83C193.691 2278.51 185.24 2260.29 184.16 2240.93L177.754 2120.8Z" fill="#455A64"/>
<path d="M3681.49 2118.95C3705.42 2107.74 3732.31 2104.47 3758.23 2109.64C3772.17 2111.95 3786.7 2116.24 3796.14 2126.55C3805.59 2136.85 3807.44 2155.41 3796.54 2164.39C3789.51 2169.12 3781.06 2171.27 3772.63 2170.46C3752.36 2170.46 3729.83 2166.63 3713.65 2178.85C3704.41 2185.46 3698.27 2197.41 3687.24 2200.84C3681.71 2202.07 3675.93 2201.49 3670.76 2199.18C3665.58 2196.87 3661.29 2192.96 3658.51 2188.03C3653.21 2177.85 3652.05 2166.02 3655.27 2155.01C3656.57 2147.39 3659.62 2140.17 3664.16 2133.91C3668.71 2127.66 3674.64 2122.54 3681.49 2118.95Z" fill="#FFDE00"/>
<path d="M3628.06 2015.72C3642.32 2036.13 3670.06 2029.4 3682.88 2016.91C3695.69 2004.43 3701.17 1986.47 3706.12 1969.23C3717.48 1930 3728.84 1888.79 3720.45 1848.77C3718.47 1836.55 3713.15 1825.12 3705.07 1815.75C3701.02 1811.16 3695.83 1807.73 3690.04 1805.8C3684.24 1803.86 3678.03 1803.49 3672.04 1804.72C3658.04 1808.41 3649.39 1822.09 3643.05 1835.1C3624.57 1873.59 3614.9 1915.7 3614.72 1958.4C3614.72 1978.21 3616.96 1999.08 3627.93 2015.46" fill="#FFDE00"/>
<path d="M3588.83 2044.98C3596.16 2035.41 3601.04 2024.19 3603.05 2012.3C3605.07 2000.41 3604.15 1988.21 3600.39 1976.76C3592.58 1953.85 3578.6 1933.56 3559.97 1918.11C3538.76 1899.28 3514.09 1884.76 3487.32 1875.38C3477 1871.2 3465.89 1869.31 3454.76 1869.83C3449.2 1870.17 3443.8 1871.85 3439.04 1874.74C3434.27 1877.63 3430.29 1881.63 3427.42 1886.41C3419.82 1900.94 3427.42 1918.51 3435.01 1932.64C3448.92 1958.07 3464.82 1982.37 3482.57 2005.29C3496.83 2023.72 3513.14 2041.81 3534.87 2050.13C3556.6 2058.45 3579.12 2057.46 3590.68 2042.41" fill="#FFDE00"/>
<path d="M3627.07 2323.22C3627.84 2320.17 3628.28 2317.05 3628.39 2313.91C3629.05 2307.31 3629.84 2298.72 3630.83 2288.68C3632.09 2276.22 3633.98 2263.83 3636.51 2251.57C3639.75 2236.66 3644.16 2222.04 3649.72 2207.84C3655.27 2193.66 3662.78 2180.32 3672.04 2168.22C3679.6 2158.4 3689.26 2150.39 3700.31 2144.77C3707.79 2141.05 3715.82 2138.53 3724.09 2137.31C3727.21 2137.2 3730.31 2136.76 3733.33 2135.99C3730.21 2135.67 3727.07 2135.67 3723.95 2135.99C3715.35 2136.68 3706.93 2138.91 3699.12 2142.59C3687.49 2148.09 3677.3 2156.2 3669.34 2166.3C3659.66 2178.54 3651.85 2192.13 3646.16 2206.66C3640.47 2221.06 3636.05 2235.93 3632.95 2251.1C3630.54 2263.52 3628.88 2276.07 3627.99 2288.68C3627.2 2299.38 3626.87 2308.1 3626.74 2314.11C3626.53 2317.15 3626.64 2320.2 3627.07 2323.22Z" fill="#263238"/>
<path d="M3628.79 2303.74C3628.99 2302.32 3628.99 2300.87 3628.79 2299.45V2287.16C3628.79 2276.46 3628.79 2261.08 3629.32 2241.99C3630.24 2203.88 3633.54 2151.25 3639.88 2093.46C3646.22 2035.67 3654.74 1983.56 3662.47 1946.18C3664.25 1936.87 3666.1 1928.42 3667.82 1921.08C3669.54 1913.75 3670.86 1907.28 3672.25 1902.13C3673.63 1896.98 3674.36 1893.35 3675.08 1890.18C3675.53 1888.81 3675.8 1887.39 3675.88 1885.95C3675.19 1887.22 3674.68 1888.57 3674.36 1889.98L3670.79 1901.73C3669.21 1906.89 3667.62 1913.23 3665.77 1920.56C3663.92 1927.89 3661.81 1936.27 3659.83 1945.65C3649.25 1994.3 3641.32 2043.49 3636.05 2093C3629.45 2150.98 3626.87 2203.75 3626.61 2241.92C3626.61 2261.08 3626.61 2276.53 3627.27 2287.23C3627.27 2292.18 3627.86 2296.28 3628.06 2299.45C3628.15 2300.9 3628.39 2302.34 3628.79 2303.74Z" fill="#263238"/>
<path d="M3629.05 2201.97C3629.41 2197.7 3629.41 2193.42 3629.05 2189.15C3628.33 2177.49 3627.01 2165.88 3625.09 2154.35C3618.74 2116.3 3607.83 2079.16 3592.59 2043.73C3577.92 2007.92 3556.84 1975.09 3530.38 1946.84C3525.79 1942 3520.89 1937.45 3515.72 1933.24C3513.47 1931.32 3511.49 1929.41 3509.51 1927.89C3507.53 1926.37 3505.55 1925.25 3503.83 1923.99C3500.4 1921.42 3496.78 1919.1 3493 1917.06C3505.44 1926.86 3517.26 1937.43 3528.4 1948.69C3553.99 1977.18 3574.52 2009.83 3589.09 2045.25C3597.51 2064.56 3604.64 2084.42 3610.42 2104.68C3615.97 2123.31 3619.67 2140.48 3622.44 2154.88C3625.22 2169.28 3626.61 2181.3 3627.53 2189.29C3627.73 2193.54 3628.23 2197.78 3629.05 2201.97Z" fill="#263238"/>
<path d="M3808.23 897.082L3435.15 904.809L3445.19 1391.28L3818.46 1392.94L3808.23 897.082Z" fill="#FFDE00"/>
<path d="M3784.05 914.913L3457.6 921.65L3466.72 1362.89L3793.37 1367.11L3784.05 914.913Z" fill="#FAFAFA"/>
<path d="M3728.51 996.279L3511.76 992.514L3518.1 1300.87L3734.72 1296.38L3728.51 996.279Z" fill="#263238"/>
<path d="M3518.1 1300.87L3731.48 1137.94L3511.76 992.514L3518.1 1300.87Z" fill="#455A64"/>
<path d="M3681.23 493.887L3425.04 499.17L3431.98 833.218L3688.23 834.34L3681.23 493.887Z" fill="#455A64"/>
<path d="M3664.65 506.105L3440.43 510.728L3446.7 813.669L3670.99 816.641L3664.65 506.105Z" fill="#FAFAFA"/>
<path d="M3626.47 561.977L3477.61 559.336L3481.97 771.137L3630.77 768.033L3626.47 561.977Z" fill="#FFDE00"/>
<path d="M3577.47 662.495C3577.47 662.495 3578.4 660.118 3579.19 655.891C3580.36 649.812 3579.48 643.515 3576.68 637.993C3574.48 633.532 3571.08 629.771 3566.86 627.126C3562.65 624.482 3557.78 623.059 3552.81 623.017C3547.83 622.974 3542.95 624.312 3538.69 626.883C3534.43 629.455 3530.96 633.157 3528.69 637.58C3526.41 642.002 3525.4 646.97 3525.78 651.931C3526.15 656.891 3527.9 661.65 3530.82 665.678C3533.74 669.705 3537.72 672.842 3542.32 674.741C3546.92 676.639 3551.95 677.224 3556.87 676.431C3563.17 675.482 3568.96 672.434 3573.31 667.779C3576.35 664.543 3577.47 662.297 3577.74 662.429C3577.14 664.758 3575.96 666.895 3574.3 668.637C3570.14 673.825 3564.26 677.361 3557.72 678.61C3552.84 679.588 3547.78 679.307 3543.03 677.793C3538.29 676.28 3534 673.584 3530.58 669.958C3526.33 665.477 3523.58 659.789 3522.7 653.677C3521.82 647.564 3522.85 641.33 3525.66 635.831C3528.47 630.333 3532.92 625.841 3538.39 622.976C3543.86 620.11 3550.08 619.012 3556.2 619.831C3561.14 620.482 3565.84 622.375 3569.84 625.331C3573.85 628.288 3577.04 632.213 3579.12 636.739C3581.92 642.774 3582.5 649.6 3580.77 656.023C3580.2 658.413 3579.07 660.633 3577.47 662.495Z" fill="#263238"/>
<path d="M3589.96 721.935C3584.16 715.11 3579.28 707.562 3575.43 699.48C3570.6 691.968 3566.76 683.866 3564 675.374C3569.73 682.231 3574.59 689.774 3578.46 697.829C3583.26 705.366 3587.12 713.461 3589.96 721.935Z" fill="#263238"/>
<path d="M3815.16 2311.47C3815.16 2312.46 2979.58 2313.18 1949.04 2313.18C918.498 2313.18 82.7188 2312.46 82.7188 2311.47C82.7188 2310.48 918.168 2309.75 1949.04 2309.75C2979.91 2309.75 3815.16 2310.54 3815.16 2311.47Z" fill="#263238"/>
<path d="M2730.27 1489.49C2730.27 1489.49 2736.14 1426.82 2742.09 1427.34C2748.03 1427.87 2749.02 1438.97 2748.3 1444.38C2747.57 1449.8 2748.3 1470.8 2748.3 1470.8L2730.27 1489.49Z" fill="#FFBE9D"/>
<path d="M3268.06 1438.18L3238.01 1649.51L3376.7 2255.4L2993.65 2286.04L3158.76 1310.32C3158.76 1310.32 3267.73 1297.97 3268.06 1438.18Z" fill="#263238"/>
<path d="M2797.11 2504.71L2774.98 2754.75H2869.49L2911.16 2504.71H2797.11Z" fill="#FFBE9D"/>
<path d="M2774.98 2754.75C2774.98 2754.75 2711.18 2763.01 2699.82 2771.2L2866.98 2769.21L2869.49 2754.75H2774.98Z" fill="#FFBE9D"/>
<path d="M2699.82 2771.26V2777.93L2871.93 2776.08V2768.88L2699.82 2771.26Z" fill="#FFDE00"/>
<path d="M2760.98 2775.09C2760.05 2775.49 2757.34 2770.34 2751.8 2766.31C2746.25 2762.28 2740.64 2761.02 2740.77 2760.1C2740.9 2759.18 2747.37 2758.91 2753.98 2763.67C2760.58 2768.42 2761.57 2774.89 2760.98 2775.09Z" fill="#FFDE00"/>
<path d="M2871.66 2749.8C2871.66 2750.72 2860.17 2753.03 2847.1 2759.24C2834.02 2765.45 2824.77 2772.45 2824.11 2771.99C2829.89 2765.01 2837.31 2759.59 2845.71 2756.2C2853.67 2751.88 2862.61 2749.67 2871.66 2749.8Z" fill="#FFDE00"/>
<path d="M2867.77 2745.7C2836.75 2746.39 2805.71 2744.82 2774.91 2741.01C2790.32 2740.16 2805.77 2740.4 2821.14 2741.74C2836.76 2741.92 2852.35 2743.25 2867.77 2745.7Z" fill="#FFDE00"/>
<path d="M2878.86 2712.81C2862.06 2717.61 2844.97 2721.29 2827.68 2723.84C2810.6 2727.52 2793.31 2730.12 2775.9 2731.63C2792.72 2726.89 2809.81 2723.21 2827.09 2720.61C2844.17 2716.94 2861.46 2714.34 2878.86 2712.81Z" fill="#FFDE00"/>
<path d="M2877.21 2714C2872.9 2714.06 2868.63 2713.13 2864.73 2711.29C2860.36 2709.57 2856.19 2707.35 2852.31 2704.69C2849.99 2703.16 2847.78 2701.46 2845.71 2699.6C2844.43 2698.49 2843.43 2697.09 2842.8 2695.51C2842.46 2694.58 2842.33 2693.59 2842.42 2692.61C2842.51 2691.63 2842.82 2690.68 2843.33 2689.83C2843.92 2688.98 2844.73 2688.31 2845.67 2687.89C2846.62 2687.47 2847.66 2687.32 2848.68 2687.45C2850.28 2687.68 2851.83 2688.12 2853.3 2688.77C2855.9 2689.84 2858.36 2691.22 2860.64 2692.87C2864.52 2695.6 2867.83 2699.05 2870.41 2703.04C2873.07 2706.5 2874.61 2710.7 2874.83 2715.06C2874.31 2715.06 2873.05 2710.44 2868.23 2704.36C2865.58 2700.84 2862.34 2697.8 2858.65 2695.38C2856.6 2693.93 2854.38 2692.74 2852.05 2691.81C2849.61 2690.69 2846.83 2690.23 2846.11 2691.81C2845.72 2692.82 2845.7 2693.92 2846.03 2694.95C2846.37 2695.97 2847.05 2696.84 2847.95 2697.42C2849.86 2699.21 2851.87 2700.89 2853.97 2702.44C2857.63 2704.97 2861.49 2707.17 2865.52 2709.05C2872.59 2712.35 2877.28 2713.47 2877.21 2714Z" fill="#FFDE00"/>
<path d="M2876.35 2716.44C2874.29 2712.68 2873.46 2708.36 2873.98 2704.09C2874.18 2699.56 2875.16 2695.09 2876.88 2690.89C2877.92 2688.34 2879.25 2685.92 2880.84 2683.69C2881.69 2682.46 2882.62 2681.29 2883.62 2680.19C2884.22 2679.45 2884.97 2678.84 2885.83 2678.42C2886.68 2678 2887.62 2677.77 2888.57 2677.74C2889.58 2677.8 2890.56 2678.14 2891.4 2678.71C2892.23 2679.28 2892.9 2680.06 2893.33 2680.98C2894.05 2682.5 2894.37 2684.19 2894.25 2685.87C2894.13 2688.64 2893.69 2691.39 2892.93 2694.06C2891.57 2698.55 2889.33 2702.73 2886.33 2706.34C2883.91 2709.89 2880.45 2712.59 2876.42 2714.07C2876.42 2713.61 2880.18 2711.03 2884.41 2704.95C2886.85 2701.4 2888.64 2697.44 2889.69 2693.26C2890.35 2690.83 2890.71 2688.32 2890.75 2685.8C2890.75 2683.29 2889.76 2681.05 2888.24 2681.05C2886.72 2681.05 2884.74 2683.56 2883.22 2685.54C2881.73 2687.61 2880.45 2689.82 2879.39 2692.14C2877.63 2696.1 2876.49 2700.31 2876.02 2704.62C2875.56 2711.49 2876.88 2716.44 2876.35 2716.44Z" fill="#FFDE00"/>
<path d="M2889.04 2755.28C2884.68 2749.65 2881.56 2743.17 2879.86 2736.26C2877.12 2729.52 2875.88 2722.26 2876.22 2714.99C2879.04 2721.51 2881.25 2728.28 2882.83 2735.2C2885.46 2741.7 2887.54 2748.42 2889.04 2755.28Z" fill="#FFDE00"/>
<path d="M2900.33 2746.43C2887.38 2738.64 2877.76 2726.34 2873.32 2711.89C2874.24 2711.43 2878.8 2720.14 2886.53 2729.59C2894.25 2739.03 2900.92 2745.64 2900.33 2746.43Z" fill="#FFDE00"/>
<path d="M3149.84 2525.18L3343.48 2678.67L3389.51 2611.3L3216.41 2422.88L3149.84 2525.18Z" fill="#FFBE9D"/>
<path d="M3329.81 2682.43C3329.81 2682.43 3300.02 2739.43 3300.29 2753.5L3394.33 2615.33L3383.96 2604.96L3329.81 2682.43Z" fill="#FFBE9D"/>
<path d="M3300.29 2753.49L3305.77 2757.33L3402.79 2615.2L3396.91 2611.04L3300.29 2753.49Z" fill="#FFDE00"/>
<path d="M3338.26 2705.81C3338.26 2706.74 3332.32 2705.81 3325.85 2708.32C3319.37 2710.83 3315.15 2714.4 3314.42 2713.8C3313.69 2713.21 3317.33 2707.66 3324.79 2705.15C3332.25 2702.64 3338.66 2705.02 3338.26 2705.81Z" fill="#FFDE00"/>
<path d="M3381.06 2600.34C3381.98 2600.74 3377.16 2611.63 3374.78 2625.9C3372.41 2640.16 3373.07 2651.92 3372.08 2652.32C3368.26 2634.57 3371.48 2616.03 3381.06 2600.6V2600.34Z" fill="#FFDE00"/>
<path d="M3375.77 2596.71C3368.52 2608.76 3360.32 2620.22 3351.27 2630.98C3343.04 2642.45 3333.94 2653.27 3324.06 2663.35C3331.33 2651.27 3339.55 2639.78 3348.63 2629C3356.8 2617.53 3365.88 2606.73 3375.77 2596.71Z" fill="#FFDE00"/>
<path d="M3354.97 2573.26C3350.05 2587.9 3344.11 2602.18 3337.21 2615.99C3331.3 2630.23 3324.37 2644.03 3316.47 2657.27C3321.4 2642.66 3327.34 2628.4 3334.23 2614.61C3340.12 2600.33 3347.05 2586.51 3354.97 2573.26Z" fill="#FFDE00"/>
<path d="M3354.9 2575.31C3355.23 2575.31 3352.13 2579.47 3345.53 2584.03C3341.68 2586.71 3337.54 2588.93 3333.18 2590.63C3330.6 2591.68 3327.95 2592.51 3325.25 2593.14C3323.6 2593.51 3321.88 2593.51 3320.23 2593.14C3319.27 2592.89 3318.39 2592.43 3317.63 2591.79C3316.88 2591.15 3316.28 2590.35 3315.87 2589.44C3315.52 2588.47 3315.44 2587.43 3315.64 2586.41C3315.83 2585.4 3316.3 2584.46 3317 2583.7C3318.08 2582.51 3319.32 2581.49 3320.69 2580.66C3327.12 2576.59 3334.62 2574.54 3342.22 2574.78C3346.58 2574.56 3350.9 2575.72 3354.57 2578.08C3354.57 2578.61 3349.82 2576.9 3342.22 2577.16C3335.17 2577.34 3328.31 2579.49 3322.41 2583.37C3320.1 2584.75 3318.12 2586.8 3318.84 2588.19C3319.45 2589.09 3320.34 2589.75 3321.38 2590.06C3322.41 2590.37 3323.52 2590.32 3324.52 2589.91C3327.07 2589.35 3329.59 2588.64 3332.05 2587.79C3336.28 2586.29 3340.36 2584.44 3344.27 2582.24C3350.94 2578.15 3354.57 2574.91 3354.9 2575.31Z" fill="#FFDE00"/>
<path d="M3356.29 2577.29C3352.02 2576.81 3348.01 2575.01 3344.8 2572.14C3341.08 2569.37 3337.9 2565.95 3335.42 2562.04C3333.93 2559.72 3332.71 2557.24 3331.79 2554.64C3331.26 2553.27 3330.84 2551.85 3330.54 2550.41C3330.26 2549.5 3330.19 2548.53 3330.33 2547.58C3330.47 2546.64 3330.81 2545.73 3331.33 2544.93C3331.97 2544.15 3332.81 2543.54 3333.76 2543.18C3334.71 2542.82 3335.74 2542.72 3336.74 2542.88C3338.39 2543.18 3339.93 2543.89 3341.23 2544.93C3343.44 2546.63 3345.43 2548.58 3347.18 2550.74C3350.17 2554.33 3352.42 2558.49 3353.78 2562.96C3355.3 2566.97 3355.53 2571.36 3354.44 2575.51C3353.67 2571.54 3352.7 2567.62 3351.54 2563.75C3350 2559.7 3347.76 2555.94 3344.93 2552.66C3343.28 2550.78 3341.45 2549.08 3339.45 2547.57C3337.54 2545.99 3334.96 2545.66 3334.04 2546.91C3333.11 2548.17 3334.04 2551.2 3334.89 2553.52C3335.73 2555.82 3336.79 2558.03 3338.06 2560.12C3340.3 2563.84 3343.11 2567.18 3346.39 2570.03C3351.93 2575.24 3356.49 2576.76 3356.29 2577.29Z" fill="#FFDE00"/>
<path d="M3395.59 2589.25C3388.33 2589.69 3381.05 2588.56 3374.26 2585.94C3367.07 2584.34 3360.31 2581.21 3354.45 2576.76C3368.17 2580.6 3381.8 2584.77 3395.33 2589.25H3395.59Z" fill="#FFDE00"/>
<path d="M3394.99 2574.91C3388.33 2578.46 3380.88 2580.26 3373.33 2580.13C3365.83 2581.1 3358.2 2580.1 3351.21 2577.23C3351.21 2576.3 3361.18 2577.23 3373.13 2576.83C3385.09 2576.43 3394.47 2573.92 3394.99 2574.91Z" fill="#FFDE00"/>
<path d="M2963.2 1770.84C2963.2 1770.84 2889.24 2262.13 2900 2285.97C2910.77 2309.82 3150.24 2554.97 3150.24 2554.97L3240.12 2401.02C3240.12 2401.02 3081.62 2225.41 3083.93 2216.1C3086.24 2206.79 3198.19 1731.28 3198.19 1731.28L2963.2 1770.84Z" fill="#FFDE00"/>
<path d="M2980.24 2378.83L3043.38 2240.14L3116.03 2084.41C3071.83 2148.32 3034.22 2216.54 3003.75 2288.02C2991.92 2317.11 2984.01 2347.65 2980.24 2378.83Z" fill="#FFDE00"/>
<path opacity="0.4" d="M2980.24 2378.83L3043.38 2240.14L3116.03 2084.41C3071.83 2148.32 3034.22 2216.54 3003.75 2288.02C2991.92 2317.11 2984.01 2347.65 2980.24 2378.83Z" fill="black"/>
<path d="M2936.92 1952.19C2937.64 1946.97 2997.28 1812.84 2997.28 1812.84L2968.29 1772.02L2963.2 1770.9L2936.92 1952.19Z" fill="#FFDE00"/>
<path opacity="0.4" d="M2936.92 1952.19C2937.64 1946.97 2997.28 1812.84 2997.28 1812.84L2968.29 1772.02L2963.2 1770.9L2936.92 1952.19Z" fill="black"/>
<path d="M3240.19 1724.61L3244.61 1742.83C3257.85 1796.59 3249.78 1853.39 3222.09 1901.34L3021.58 2248.92C3007.35 2273.61 2996.99 2300.34 2990.87 2328.18L2940.94 2552.72C2940.94 2552.72 2783.3 2558.07 2776.5 2552.72C2769.69 2547.37 2796.84 2398.71 2814.93 2286.11C2828.6 2201.17 2942.2 1937.6 2997.28 1813.1L2963.2 1771.1L3022.64 1761.26L3240.19 1724.61Z" fill="#FFDE00"/>
<path d="M2940.95 2552.46C2938.8 2553.08 2936.58 2553.44 2934.34 2553.52C2930.12 2553.98 2924.11 2554.51 2916.58 2554.97C2901.58 2555.96 2880.78 2556.69 2857.86 2556.62C2834.95 2556.55 2814.14 2555.89 2799.15 2555.1C2791.62 2554.77 2785.55 2554.37 2781.39 2554.04C2779.15 2554.1 2776.93 2553.81 2774.78 2553.19C2776.96 2552.8 2779.18 2552.66 2781.39 2552.79H2799.15L2857.8 2553.32C2880.71 2553.32 2901.39 2552.99 2916.38 2552.66L2934.21 2552.19C2936.46 2551.94 2938.73 2552.03 2940.95 2552.46Z" fill="#263238"/>
<path d="M2949.6 2510.26C2949.6 2511.18 2911.69 2511.78 2865 2511.58C2818.3 2511.38 2780.33 2510.52 2780.33 2509.66C2780.33 2508.8 2818.24 2508.14 2865 2508.28C2911.75 2508.41 2949.6 2509.33 2949.6 2510.26Z" fill="#263238"/>
<path d="M3212.58 2369.19C3211.73 2371.39 3210.6 2373.48 3209.21 2375.4L3198.98 2391.64L3165.03 2445.07L3131.22 2498.57L3120.85 2514.75C3119.69 2516.82 3118.27 2518.73 3116.62 2520.43C3117.39 2518.11 3118.43 2515.89 3119.73 2513.82C3121.9 2509.86 3125.14 2504.12 3129.17 2497.11C3137.36 2483.11 3148.98 2464.09 3162.19 2443.03C3175.4 2421.96 3187.88 2403.4 3197.06 2390.19C3201.69 2383.59 3205.45 2378.17 3208.16 2374.47C3209.41 2372.53 3210.89 2370.76 3212.58 2369.19Z" fill="#263238"/>
<path d="M3140.79 2541.69C3137.24 2535.22 3134.66 2528.25 3133.13 2521.02C3130.55 2514.12 3129.04 2506.86 3128.64 2499.49C3132.19 2505.95 3134.77 2512.89 3136.3 2520.1C3138.87 2527.03 3140.38 2534.31 3140.79 2541.69Z" fill="#263238"/>
<path d="M3154.8 2541.23C3151.23 2529.95 3148.74 2518.37 3147.33 2506.63C3144.86 2495.07 3143.49 2483.3 3143.24 2471.49C3149.24 2494.33 3153.11 2517.68 3154.8 2541.23Z" fill="#263238"/>
<path d="M3173.09 2515.14C3169.58 2505.31 3166.82 2495.22 3164.83 2484.96C3161.77 2474.98 3159.56 2464.75 3158.23 2454.38C3162.72 2463.87 3166 2473.87 3168 2484.17C3171.05 2494.23 3172.76 2504.64 3173.09 2515.14Z" fill="#263238"/>
<path d="M3188.67 2479.02C3185.1 2469.62 3182.59 2459.85 3181.21 2449.89C3178.7 2440.13 3177.28 2430.12 3176.98 2420.04C3180.49 2429.49 3182.99 2439.27 3184.45 2449.23C3186.92 2458.98 3188.34 2468.97 3188.67 2479.02Z" fill="#263238"/>
<path d="M3208.82 2449.1C3205.84 2439.67 3203.48 2430.05 3201.75 2420.31C3198.89 2410.8 3196.69 2401.12 3195.15 2391.31C3199.75 2400.2 3202.98 2409.73 3204.72 2419.58C3207.59 2429.15 3208.98 2439.11 3208.82 2449.1Z" fill="#263238"/>
<path d="M3226.78 2423.74C3223.2 2416.31 3220.67 2408.42 3219.25 2400.3C3216.74 2392.42 3215.27 2384.25 3214.89 2375.99C3220.94 2391.31 3224.94 2407.37 3226.78 2423.74Z" fill="#263238"/>
<path d="M2858.85 2508.61C2846.19 2516.45 2833.11 2523.61 2819.69 2530.07C2806.84 2537.55 2793.61 2544.36 2780.06 2550.48C2783.31 2547.5 2786.93 2544.95 2790.83 2542.88C2797.43 2538.59 2807.4 2532.98 2818.37 2527.16C2829.33 2521.35 2839.44 2516.53 2846.83 2513.23C2850.62 2511.18 2854.66 2509.63 2858.85 2508.61Z" fill="#263238"/>
<path d="M2907.46 2509.33C2903.64 2512.49 2899.47 2515.22 2895.04 2517.46C2887.12 2522.01 2876.09 2528.02 2863.61 2534.23C2851.13 2540.44 2839.57 2545.52 2831.11 2549.02C2826.68 2551.22 2822 2552.89 2817.18 2553.98C2821.3 2551.13 2825.73 2548.76 2830.39 2546.91L2862.29 2531.26L2894.12 2515.41C2898.34 2512.91 2902.81 2510.87 2907.46 2509.33Z" fill="#263238"/>
<path d="M2944.45 2509.33C2935.03 2518.85 2924.67 2527.39 2913.54 2534.83C2903.02 2543.11 2891.72 2550.34 2879.79 2556.42C2889.83 2547.63 2900.45 2539.52 2911.56 2532.12C2922.05 2523.86 2933.03 2516.25 2944.45 2509.33Z" fill="#263238"/>
<path d="M2948.47 2532.58C2949.07 2533.31 2942.93 2539.18 2934.74 2545.26C2930.12 2549.52 2924.77 2552.92 2918.95 2555.3C2922.79 2550.3 2927.46 2546.01 2932.76 2542.62C2937.37 2538.38 2942.69 2534.98 2948.47 2532.58Z" fill="#263238"/>
<path d="M2815.73 2507.81C2809.59 2513.38 2802.75 2518.1 2795.39 2521.88C2788.54 2526.59 2781.1 2530.37 2773.26 2533.11C2786.23 2522.83 2800.51 2514.33 2815.73 2507.81Z" fill="#263238"/>
<path d="M2992.92 1811.65C2990.63 1819.16 2987.83 1826.51 2984.53 1833.64C2979.12 1846.85 2971.32 1865.67 2963.53 1886.48C2955.74 1907.28 2948.54 1926.1 2943.72 1939.31C2941.29 1946.76 2938.38 1954.04 2935 1961.11C2935.22 1959.01 2935.69 1956.95 2936.39 1954.96C2937.51 1951.07 2939.23 1945.45 2941.47 1938.52C2945.96 1924.72 2952.63 1905.5 2960.62 1885.09C2968.62 1864.68 2976.61 1845.93 2982.62 1832.72C2985.66 1826.11 2988.17 1820.83 2990.01 1817.2C2990.75 1815.23 2991.72 1813.37 2992.92 1811.65Z" fill="#263238"/>
<path d="M2976.48 2394.55C2976.33 2393.25 2976.33 2391.95 2976.48 2390.65C2976.81 2387.75 2977.34 2384.05 2977.86 2379.56C2978.39 2375.07 2979.32 2368.86 2980.84 2362.06C2982.35 2355.25 2983.54 2347.53 2985.92 2339.14C2987.04 2334.98 2988.23 2330.55 2989.42 2325.93C2990.61 2321.31 2992.33 2316.68 2993.85 2311.8C2996.75 2302.02 3000.78 2291.98 3004.74 2281.02C3014.03 2257.86 3024.57 2235.22 3036.31 2213.19C3058.04 2173.47 3082 2135.01 3108.1 2098.01C3117.94 2083.75 3126.13 2072.32 3131.88 2064.46L3138.48 2055.48C3139.23 2054.4 3140.07 2053.38 3140.99 2052.44C3140.49 2053.66 3139.85 2054.81 3139.08 2055.88C3137.42 2058.26 3135.44 2061.36 3132.93 2065.19L3110.02 2099.34C3091.19 2128.2 3064.78 2168.28 3039.48 2214.52C3027.81 2236.42 3017.25 2258.91 3007.85 2281.88C3003.82 2292.58 2999.66 2302.68 2996.69 2312.39C2995.1 2317.28 2993.45 2321.9 2992.13 2326.39C2990.81 2330.88 2989.62 2335.31 2988.5 2339.6C2985.99 2347.92 2984.47 2355.65 2982.88 2362.32C2981.3 2368.99 2980.18 2374.87 2979.38 2379.62C2978.59 2384.38 2977.93 2387.75 2977.4 2390.59C2977.23 2391.94 2976.92 2393.26 2976.48 2394.55Z" fill="#263238"/>
<path d="M3173.09 1310.84L3017.95 1324.05C3017.95 1324.05 2971.72 1325.11 2921 1442.93L2884.55 1559.83L2950.13 1573.83V1580.43L2963.34 1770.84L3243.1 1725.79C3243.69 1701.62 3229.89 1666.36 3219.78 1633.33C3230.28 1607.25 3274.47 1493.39 3274.4 1438.57C3274.4 1321.34 3173.02 1311.24 3173.02 1311.24" fill="white"/>
<path d="M3240.12 2400.89C3239.46 2403.2 3238.51 2405.42 3237.28 2407.49C3235.23 2411.52 3232.2 2417.27 3228.3 2424.33C3220.51 2438.47 3209.28 2457.75 3196.6 2478.82L3163.84 2532.51L3153.94 2548.89C3152.86 2550.97 3151.53 2552.9 3149.97 2554.64C3150.63 2552.32 3151.59 2550.11 3152.81 2548.03C3154.86 2544.01 3157.9 2538.26 3161.79 2531.19C3169.59 2517.06 3180.81 2497.78 3193.5 2476.71L3225.99 2422.82L3235.89 2406.5C3237.08 2404.47 3238.49 2402.59 3240.12 2400.89Z" fill="#263238"/>
<path d="M3203.47 1590.8C3196.62 1594.12 3189.2 1596.07 3181.61 1596.55C3174.17 1598.03 3166.52 1598.03 3159.09 1596.55C3166.33 1594.67 3173.74 1593.5 3181.21 1593.05C3188.54 1591.59 3195.99 1590.84 3203.47 1590.8Z" fill="white"/>
<path d="M2963.86 1581.49L2960.69 1788.14L3044.57 1317.51C3016.7 1312.56 2964.72 1334.49 2945.17 1362.29C2931.17 1378.93 2923.51 1417.24 2884.54 1532.55L2860.64 1610.81L2763.68 1504.68L2698.37 1563.72C2698.37 1563.72 2811.04 1747.79 2858.13 1757.96C2922.19 1771.83 2963.8 1581.49 2963.8 1581.49" fill="#455A64"/>
<path d="M2977.27 1390.29C2977.32 1393 2977.03 1395.71 2976.41 1398.35C2975.55 1404.16 2974.43 1411.56 2973.04 1420.08C2970.2 1438.44 2966.44 1463.8 2962.94 1491.93C2959.44 1520.07 2957 1545.63 2955.28 1564.12C2954.49 1572.84 2953.83 1580.17 2953.23 1585.98C2953.19 1588.7 2952.82 1591.41 2952.11 1594.04C2951.84 1591.34 2951.84 1588.62 2952.11 1585.91C2952.11 1580.7 2952.57 1573.23 2953.1 1563.92C2954.16 1545.36 2956.34 1519.74 2959.7 1491.27C2963.07 1462.81 2967.36 1437.71 2970.8 1419.42C2972.58 1410.3 2974.1 1402.91 2975.22 1397.82C2975.67 1395.26 2976.36 1392.74 2977.27 1390.29Z" fill="#263238"/>
<path d="M2955.54 1381.25C2955.21 1380.32 2968.22 1374.64 2983.02 1365.66C2997.81 1356.68 3008.57 1347.43 3009.43 1348.16C2995.01 1364.01 2976.39 1375.45 2955.74 1381.18L2955.54 1381.25Z" fill="white"/>
<path d="M2928.73 1517.49C2925.38 1509.85 2922.67 1501.94 2920.6 1493.85C2917.5 1486.11 2915.03 1478.14 2913.21 1470.01C2922.04 1484.4 2927.36 1500.66 2928.73 1517.49Z" fill="white"/>
<path d="M2996.75 1443.13C2997.67 1452.33 2997 1461.62 2994.77 1470.6C2993.63 1479.82 2990.88 1488.76 2986.65 1497.02C2987.73 1487.97 2989.36 1478.99 2991.54 1470.14C2992.71 1461.04 2994.45 1452.01 2996.75 1443.13Z" fill="white"/>
<path d="M2902.38 1623.29C2902.42 1631.42 2901.75 1639.53 2900.39 1647.53C2900.06 1655.68 2899.04 1663.79 2897.36 1671.77C2895.3 1655.44 2897.02 1638.86 2902.38 1623.29Z" fill="white"/>
<path d="M2778.41 1621.64C2771.21 1613.82 2765.28 1604.9 2760.85 1595.23C2755.44 1586.05 2751.47 1576.09 2749.09 1565.71C2754.49 1574.76 2759.38 1584.11 2763.75 1593.71C2769.13 1602.75 2774.02 1612.08 2778.41 1621.64Z" fill="white"/>
<path d="M2849.34 1626.73C2844.14 1631.68 2837.98 1635.53 2831.25 1638.02C2824.93 1641.52 2817.96 1643.65 2810.77 1644.3C2816.8 1640.57 2823.2 1637.47 2829.86 1635.05C2836.06 1631.63 2842.58 1628.84 2849.34 1626.73Z" fill="white"/>
<path d="M3185.24 1691.98L3233.78 2269L3380 2255.2L3241.18 1649.32L3258.15 1486.65L3185.24 1691.98Z" fill="#455A64"/>
<path d="M3233.78 2269C3232.92 2269 3222.16 2141.07 3209.81 1983.1C3197.46 1825.12 3188.28 1697.07 3189.14 1697C3190 1696.93 3200.83 1824.86 3213.11 1982.84C3225.4 2140.81 3234.71 2268.93 3233.78 2269Z" fill="#263238"/>
<path d="M3219.71 1705.32C3220.71 1698.69 3222.79 1692.26 3225.86 1686.3C3227.98 1679.95 3231.1 1673.97 3235.1 1668.6C3232.08 1681.62 3226.88 1694.04 3219.71 1705.32Z" fill="white"/>
<path d="M3260.07 1791.18C3259.28 1791.77 3252.01 1783.32 3241.78 1774.27C3235.23 1769.17 3228.95 1763.75 3222.95 1758.02C3230.88 1761.07 3238.07 1765.77 3244.02 1771.83C3250.67 1777.08 3256.14 1783.67 3260.07 1791.18Z" fill="white"/>
<path d="M3251.15 1906.95C3253.8 1900.16 3256.87 1893.55 3260.33 1887.14C3262.8 1880.21 3265.68 1873.44 3268.98 1866.86C3268.81 1874.41 3266.86 1881.8 3263.3 1888.46C3260.77 1895.49 3256.6 1901.83 3251.15 1906.95Z" fill="white"/>
<path d="M3282.72 1999.87C3268.58 1990.61 3255.75 1979.51 3244.55 1966.85C3251.78 1971.06 3258.44 1976.19 3264.36 1982.11C3271.23 1987.21 3277.4 1993.18 3282.72 1999.87Z" fill="white"/>
<path d="M3309.14 2063.67C3307.07 2045.14 3307.2 2026.43 3309.53 2007.93C3311.05 2017.14 3311.54 2026.49 3310.99 2035.8C3311.46 2045.13 3310.84 2054.49 3309.14 2063.67Z" fill="white"/>
<path d="M3262.25 2107C3260.38 2099.75 3259.21 2092.34 3258.75 2084.87C3257.25 2077.54 3256.44 2070.09 3256.3 2062.62C3259.72 2069.42 3261.76 2076.82 3262.31 2084.41C3263.8 2091.87 3263.77 2099.55 3262.25 2107Z" fill="white"/>
<path d="M3310.66 2162.21C3296.64 2162.34 3282.69 2160.26 3269.31 2156.07C3276.32 2155.44 3283.39 2155.93 3290.25 2157.52C3297.25 2158.02 3304.14 2159.6 3310.66 2162.21Z" fill="white"/>
<path d="M3302.54 2235.65C3309.49 2221.3 3318.38 2207.97 3328.95 2196.02C3326.02 2203.47 3322.07 2210.47 3317.2 2216.83C3313.16 2223.72 3308.23 2230.05 3302.54 2235.65Z" fill="white"/>
<path d="M2969.81 1761.99L2724.19 1427.41C2738.75 1416.2 2752.38 1403.83 2764.94 1390.43C2817.31 1334.36 2849.08 1262.17 2855.02 1185.68C2860.97 1109.19 2840.74 1032.95 2797.66 969.472C2754.59 905.99 2691.21 859.034 2617.94 836.305C2544.66 813.577 2465.84 816.426 2394.39 844.386C2322.95 872.345 2263.13 923.755 2224.75 990.181C2186.37 1056.61 2171.7 1134.11 2183.15 1209.97C2194.6 1285.83 2231.5 1355.54 2287.78 1407.67C2344.06 1459.81 2416.39 1491.27 2492.91 1496.89C2504.97 1497.77 2517.08 1497.99 2529.17 1497.55C2578.33 1496.04 2626.58 1483.77 2670.5 1461.62L2918.62 1799.63C2923.64 1806.38 2931.13 1810.87 2939.45 1812.11C2947.77 1813.35 2956.24 1811.23 2963 1806.23C2969.75 1801.25 2974.25 1793.8 2975.52 1785.51C2976.8 1777.22 2974.74 1768.77 2969.81 1761.99ZM2527.32 1434.15C2517.49 1434.47 2507.66 1434.29 2497.86 1433.62C2427.63 1428.56 2362.02 1396.74 2314.57 1344.72C2267.11 1292.71 2241.42 1224.46 2242.8 1154.07C2244.18 1083.67 2272.53 1016.49 2321.99 966.372C2371.45 916.259 2438.25 887.036 2508.63 884.731C2518.56 884.399 2528.5 884.598 2538.41 885.326C2608.53 890.566 2673.98 922.478 2721.28 974.498C2768.59 1026.52 2794.17 1094.69 2792.74 1164.99C2791.32 1235.29 2763.02 1302.37 2713.64 1352.44C2664.27 1402.5 2597.59 1431.74 2527.32 1434.15Z" fill="#263238"/>
<path d="M2872.26 1580.04L2843.14 1679.56C2843.14 1679.56 2995.56 1734.97 3078.12 1733.92C3155.46 1732.99 3177.58 1724.21 3204.79 1661.8C3232 1599.39 3262.91 1527.66 3269.51 1486.12C3269.51 1486.12 3313.17 1295.98 3146.61 1312.96L3141.98 1461.62C3141.98 1461.62 3123.56 1522.58 3122.17 1526.14C3109.75 1559.17 3093.64 1607.18 3078.05 1612.99C3062.47 1618.8 2872.26 1580.04 2872.26 1580.04Z" fill="#455A64"/>
<path d="M3111.47 1659.75C3099.2 1645.33 3089.59 1628.85 3083.07 1611.08C3088.71 1618.6 3093.68 1626.6 3097.93 1634.98C3103.12 1642.85 3107.65 1651.14 3111.47 1659.75Z" fill="#263238"/>
<path d="M3127.05 1644.1C3119.1 1639.99 3111.67 1634.94 3104.93 1629.04C3097.61 1624 3090.95 1618.05 3085.12 1611.34C3093.06 1615.47 3100.48 1620.53 3107.24 1626.4C3114.56 1631.44 3121.22 1637.39 3127.05 1644.1Z" fill="#263238"/>
<path d="M3178.83 1372.92C3174 1388.81 3168.13 1404.36 3161.27 1419.48C3155.43 1435.02 3148.57 1450.16 3140.73 1464.79C3145.51 1448.9 3151.36 1433.34 3158.23 1418.23C3164.07 1402.68 3170.95 1387.55 3178.83 1372.92Z" fill="#263238"/>
<path d="M3262.91 1514.46C3262.48 1517.06 3261.74 1519.61 3260.73 1522.05C3258.88 1527.47 3256.57 1534.27 3254.12 1542.26C3248.05 1559.3 3239.53 1582.81 3229.49 1608.3C3219.45 1633.8 3209.68 1656.98 3201.62 1673.29C3197.72 1681.48 3194.42 1688.02 3191.98 1692.44C3190.9 1694.79 3189.54 1697.01 3187.95 1699.05C3188.66 1696.51 3189.63 1694.05 3190.86 1691.72C3193.17 1686.5 3196.01 1679.89 3199.44 1671.9C3206.71 1655.33 3216.28 1632.28 3226.39 1606.65C3236.49 1581.03 3245.14 1558.31 3251.88 1540.61C3255.18 1532.22 3257.95 1525.42 3259.87 1520.8C3260.69 1518.59 3261.7 1516.47 3262.91 1514.46Z" fill="#263238"/>
<path d="M3017.95 1608.63C3017.95 1609.56 2984.93 1604.27 2943.85 1596.88C2902.77 1589.48 2870.15 1582.74 2870.34 1581.89C2870.54 1581.03 2903.37 1586.24 2944.45 1593.64C2985.52 1601.04 3018.15 1607.77 3017.95 1608.63Z" fill="#263238"/>
<path d="M3190.79 1517.89C3188.79 1500.03 3189.03 1481.99 3191.52 1464.2C3193.02 1473.07 3193.44 1482.1 3192.77 1491.08C3193.21 1500.06 3192.54 1509.07 3190.79 1517.89Z" fill="white"/>
<path d="M3131.41 1700.7C3133.85 1693.78 3136.79 1687.05 3140.2 1680.55C3142.62 1673.62 3145.54 1666.87 3148.92 1660.35C3148.66 1667.86 3146.72 1675.22 3143.24 1681.88C3140.73 1688.94 3136.69 1695.37 3131.41 1700.7Z" fill="white"/>
<path d="M3050.78 1695.55C3041.71 1680.31 3033.15 1664.78 3025.09 1648.99C3031.41 1655.38 3036.61 1662.79 3040.47 1670.91C3045.28 1678.48 3048.76 1686.81 3050.78 1695.55Z" fill="white"/>
<path d="M2939.3 1644.1C2932.61 1648.53 2925.34 1652.02 2917.7 1654.47C2910.46 1657.9 2902.8 1660.34 2894.91 1661.73C2901.6 1657.3 2908.87 1653.81 2916.51 1651.36C2923.74 1647.92 2931.41 1645.48 2939.3 1644.1Z" fill="white"/>
<path d="M3252.01 1410.77C3251.28 1411.36 3243.95 1404.16 3233.39 1396.63C3222.82 1389.1 3213.18 1385.21 3213.57 1384.28C3221.48 1385.67 3228.92 1388.98 3235.24 1393.93C3242.15 1398.05 3247.91 1403.84 3252.01 1410.77Z" fill="white"/>
<path d="M3204.46 1574.95C3187.55 1581.04 3169.51 1583.29 3151.62 1581.56C3160.32 1579.67 3169.16 1578.46 3178.04 1577.92C3186.76 1576.29 3195.59 1575.3 3204.46 1574.95Z" fill="white"/>
<path d="M3188.81 1065.82C3193.26 1057.72 3200.35 1051.37 3208.9 1047.84C3217.45 1044.31 3226.95 1043.8 3235.83 1046.41C3244.61 1049.29 3252.58 1054.25 3259.05 1060.86C3265.52 1067.47 3270.31 1075.54 3273.01 1084.38C3278.23 1102.19 3278.57 1121.08 3274 1139.06C3271.09 1152.27 3267.4 1167.53 3275.98 1177.7C3284.57 1187.87 3299.23 1186.95 3308.67 1195.14C3311 1197.18 3312.89 1199.69 3314.21 1202.49C3315.53 1205.3 3316.27 1208.35 3316.36 1211.45C3316.46 1214.55 3315.92 1217.63 3314.77 1220.52C3313.63 1223.4 3311.9 1226.02 3309.71 1228.2C3307.51 1230.39 3304.88 1232.11 3302 1233.24C3299.11 1234.37 3296.02 1234.9 3292.92 1234.79C3289.82 1234.68 3286.78 1233.94 3283.98 1232.6C3281.18 1231.27 3278.68 1229.37 3276.64 1227.03C3276.64 1236.21 3281.66 1244.6 3284.5 1253.45C3287.34 1262.3 3287.74 1273.26 3280.74 1279.14C3277.96 1281.15 3274.69 1282.38 3271.28 1282.7C3267.87 1283.03 3264.43 1282.44 3261.32 1280.99C3255.11 1278.05 3249.5 1274 3244.74 1269.04C3247.98 1278.52 3247.98 1288.81 3244.74 1298.3C3243 1302.97 3240.08 1307.12 3236.26 1310.34C3232.44 1313.55 3227.86 1315.73 3222.95 1316.66C3216.73 1317.11 3210.52 1315.71 3205.11 1312.61C3199.69 1309.52 3195.33 1304.88 3192.57 1299.29C3187.27 1287.99 3185.27 1275.41 3186.82 1263.03C3188.21 1243.74 3193.43 1224.86 3195.54 1205.7C3198.94 1186.51 3196.45 1166.73 3188.41 1148.97" fill="#FFDE00"/>
<path d="M3300.75 1178.43C3300.75 1178.43 3299.96 1178.89 3298.24 1178.43C3297.01 1178.22 3295.84 1177.74 3294.83 1177C3293.82 1176.27 3293 1175.31 3292.43 1174.2C3291.5 1172.36 3291.26 1170.25 3291.76 1168.25C3292.25 1166.25 3293.45 1164.49 3295.14 1163.3C3297.31 1161.65 3300 1160.82 3302.73 1160.98C3305.45 1161.14 3308.03 1162.27 3310 1164.16C3312.31 1166.41 3313.95 1169.25 3314.73 1172.38C3315.51 1175.51 3315.41 1178.79 3314.42 1181.86C3313.56 1185.35 3311.7 1188.52 3309.07 1190.97C3306.17 1193.58 3302.46 1195.09 3298.57 1195.27C3294.58 1195.52 3290.6 1194.65 3287.08 1192.76C3283.45 1190.71 3280.42 1187.75 3278.3 1184.17C3274.12 1176.71 3272.63 1168.04 3274.07 1159.6C3276.51 1142.63 3284.7 1128.43 3284.51 1114.17C3284.69 1101.57 3281.25 1089.19 3274.6 1078.5C3270.12 1071.26 3264.29 1064.93 3257.43 1059.88C3252.54 1056.31 3249.44 1054.99 3249.63 1054.66C3249.83 1054.33 3250.43 1054.66 3251.95 1055.52C3254.1 1056.45 3256.18 1057.55 3258.15 1058.82C3265.51 1063.62 3271.78 1069.89 3276.58 1077.25C3283.79 1088.23 3287.6 1101.09 3287.54 1114.23C3287.54 1129.36 3279.55 1144.02 3277.31 1160.07C3275.99 1167.74 3277.31 1175.63 3281.07 1182.46C3282.77 1185.53 3285.28 1188.07 3288.34 1189.79C3291.39 1191.52 3294.87 1192.36 3298.37 1192.23C3301.48 1192.04 3304.43 1190.87 3306.81 1188.87C3309.19 1186.87 3310.86 1184.16 3311.58 1181.13C3312.49 1178.53 3312.65 1175.72 3312.05 1173.03C3311.46 1170.34 3310.13 1167.86 3308.21 1165.88C3306.65 1164.28 3304.57 1163.3 3302.34 1163.09C3300.12 1162.89 3297.89 1163.48 3296.06 1164.76C3294.65 1165.69 3293.61 1167.08 3293.12 1168.69C3292.62 1170.31 3292.71 1172.05 3293.35 1173.61C3293.82 1174.6 3294.49 1175.48 3295.32 1176.2C3296.15 1176.92 3297.12 1177.45 3298.18 1177.77C3299.83 1178.43 3300.69 1178.23 3300.75 1178.43Z" fill="#FFDE00"/>
<path d="M3147.92 1316.66L3156.77 1115.09L3076.73 1054.46L3004.08 1090.06C3004.08 1090.06 3001.64 1181.4 3004.08 1221.02C3006.53 1260.65 3046.48 1264.88 3046.48 1264.88C3046.48 1264.88 3045.56 1288.06 3044.63 1312.49C3044.37 1319.49 3045.54 1326.47 3048.05 1333.01C3050.57 1339.54 3054.38 1345.5 3059.26 1350.52C3064.15 1355.54 3070 1359.52 3076.46 1362.21C3082.93 1364.9 3089.87 1366.26 3096.87 1366.19C3110.1 1366.01 3122.76 1360.79 3132.25 1351.58C3141.74 1342.36 3147.35 1329.87 3147.92 1316.66Z" fill="#FFBE9D"/>
<path d="M3011.94 1156.63C3011.94 1157.64 3012.24 1158.62 3012.8 1159.46C3013.36 1160.29 3014.15 1160.95 3015.08 1161.33C3016.01 1161.72 3017.03 1161.82 3018.02 1161.62C3019.01 1161.42 3019.91 1160.94 3020.62 1160.23C3021.33 1159.52 3021.82 1158.61 3022.01 1157.62C3022.21 1156.64 3022.11 1155.62 3021.72 1154.69C3021.34 1153.76 3020.69 1152.96 3019.85 1152.4C3019.02 1151.85 3018.03 1151.55 3017.03 1151.55C3015.68 1151.56 3014.4 1152.11 3013.45 1153.06C3012.5 1154.01 3011.96 1155.29 3011.94 1156.63Z" fill="#263238"/>
<path d="M3006.99 1151.22C3007.65 1151.88 3011.35 1148.71 3016.83 1148.44C3022.31 1148.18 3026.4 1150.75 3026.93 1150.03C3027.46 1149.3 3026.54 1148.51 3024.75 1147.25C3022.36 1145.66 3019.5 1144.9 3016.63 1145.08C3013.76 1145.26 3011.02 1146.37 3008.84 1148.24C3007.19 1149.5 3006.66 1150.82 3006.99 1151.22Z" fill="#263238"/>
<path d="M3070.66 1156.63C3070.66 1157.64 3070.95 1158.62 3071.51 1159.46C3072.07 1160.29 3072.87 1160.95 3073.8 1161.33C3074.72 1161.72 3075.75 1161.82 3076.73 1161.62C3077.72 1161.42 3078.63 1160.94 3079.34 1160.23C3080.05 1159.52 3080.53 1158.61 3080.73 1157.62C3080.93 1156.64 3080.82 1155.62 3080.44 1154.69C3080.05 1153.76 3079.4 1152.96 3078.57 1152.4C3077.73 1151.85 3076.75 1151.55 3075.74 1151.55C3074.39 1151.55 3073.1 1152.08 3072.15 1153.04C3071.19 1153.99 3070.66 1155.28 3070.66 1156.63Z" fill="#263238"/>
<path d="M3067.48 1151.22C3068.14 1151.88 3071.91 1148.71 3077.32 1148.44C3082.74 1148.18 3086.9 1150.75 3087.5 1150.03C3088.09 1149.3 3087.1 1148.51 3085.25 1147.25C3082.85 1145.66 3080 1144.9 3077.13 1145.08C3074.25 1145.26 3071.52 1146.37 3069.33 1148.24C3067.68 1149.5 3067.15 1150.82 3067.48 1151.22Z" fill="#263238"/>
<path d="M3065.84 1202.4C3057.5 1206.65 3048.61 1209.69 3039.42 1211.45C3041.43 1214.2 3044.3 1216.2 3047.58 1217.13C3050.86 1218.06 3054.35 1217.88 3057.51 1216.6C3059.02 1216.27 3060.45 1215.62 3061.69 1214.71C3062.94 1213.81 3063.99 1212.65 3064.77 1211.31C3065.55 1209.98 3066.05 1208.5 3066.23 1206.97C3066.42 1205.43 3066.28 1203.88 3065.84 1202.4Z" fill="white"/>
<path d="M3046.29 1264.88C3065.12 1264.07 3083.34 1257.91 3098.79 1247.11C3098.79 1247.11 3086.9 1276.24 3047.14 1274.59L3046.29 1264.88Z" fill="#EB996E"/>
<path d="M3272.02 1229.02C3267.02 1229.2 3262.05 1228.07 3257.62 1225.71C3251.1 1222.23 3245.68 1216.99 3241.97 1210.59C3237.42 1202.55 3233.51 1194.16 3230.28 1185.49C3222.89 1167.07 3217.07 1149.96 3213.51 1137.48L3211.86 1132C3211.86 1129.88 3211.2 1127.97 3210.87 1126.58C3189.2 1043.96 3116.62 1028.57 3102.22 1028.57C3087.83 1028.57 3059.89 1020.12 3020.59 1060.94C3014.7 1067.07 3009.7 1074.01 3005.74 1081.54C2997.01 1092.38 2991.01 1105.15 2988.23 1118.79C2986.42 1125.24 2986.11 1132.01 2987.31 1138.6C2988.04 1138.6 2988.17 1131.14 2991.21 1119.65C2993.05 1112.9 2995.62 1106.36 2998.87 1100.17C2995.43 1115.43 2996.84 1131.38 3002.9 1145.8L3016.96 1141.9L3067.42 1124.73C3062.8 1109.15 3069.6 1089.73 3073.36 1080.68L3073.76 1080.35C3076.58 1096.82 3084.56 1111.96 3096.55 1123.6C3108.54 1135.23 3123.92 1142.75 3140.46 1145.07L3149.78 1274.85C3216.88 1260.52 3215.29 1170.77 3214.89 1152.54C3217.93 1162.77 3221.89 1174.6 3226.85 1186.95C3230.12 1195.84 3234.23 1204.4 3239.13 1212.5C3243.27 1219.33 3249.3 1224.79 3256.5 1228.22C3261.38 1230.5 3266.82 1231.3 3272.15 1230.53C3274.11 1230.36 3275.98 1229.65 3277.57 1228.49C3275.71 1228.55 3273.86 1228.72 3272.02 1229.02Z" fill="#FFDE00"/>
<path d="M3047.81 1197.45C3044.88 1196.77 3041.89 1196.39 3038.89 1196.32C3037.5 1196.32 3036.12 1196.32 3035.85 1195.07C3035.65 1193.55 3035.9 1192.02 3036.58 1190.64L3040.34 1179.35C3042.92 1171.29 3045.16 1163.96 3046.95 1158.61C3048 1155.79 3048.67 1152.83 3048.93 1149.83C3047.32 1152.34 3045.99 1155.02 3044.97 1157.82C3043.12 1163.04 3040.67 1170.3 3038.36 1178.36L3034.79 1189.72C3033.98 1191.5 3033.8 1193.5 3034.27 1195.4C3034.47 1195.89 3034.79 1196.32 3035.19 1196.66C3035.59 1197 3036.07 1197.25 3036.58 1197.38C3037.37 1197.47 3038.17 1197.47 3038.96 1197.38C3041.89 1197.78 3044.86 1197.8 3047.81 1197.45Z" fill="#263238"/>
<path d="M3161 1195.53C3160.34 1188.85 3161.06 1182.11 3163.12 1175.72C3164.16 1172.58 3166.03 1169.79 3168.53 1167.62C3171.03 1165.46 3174.06 1164.02 3177.31 1163.43C3181.16 1163.26 3184.93 1164.51 3187.9 1166.95C3190.88 1169.39 3192.85 1172.84 3193.43 1176.64C3193.87 1180.43 3193.17 1184.25 3191.43 1187.64C3189.69 1191.03 3186.99 1193.82 3183.66 1195.66C3180.27 1197.43 3176.52 1198.4 3172.7 1198.52C3168.88 1198.63 3165.09 1197.88 3161.6 1196.32" fill="#FFBE9D"/>
<path d="M3172.49 1189.79C3172.49 1189.32 3174.67 1190.31 3177.45 1189.46C3179.19 1188.86 3180.71 1187.73 3181.77 1186.22C3182.84 1184.72 3183.41 1182.91 3183.39 1181.07C3183.55 1180.14 3183.51 1179.19 3183.27 1178.28C3183.03 1177.37 3182.6 1176.52 3182 1175.78C3180.77 1174.8 3179.21 1174.33 3177.64 1174.46C3174.67 1174.46 3172.63 1175.52 3172.43 1175.06C3172.23 1174.6 3173.75 1173.21 3177.31 1172.15C3178.44 1171.87 3179.62 1171.85 3180.76 1172.08C3181.91 1172.3 3182.98 1172.78 3183.92 1173.47C3184.95 1174.47 3185.73 1175.69 3186.21 1177.05C3186.68 1178.4 3186.82 1179.85 3186.63 1181.27C3186.48 1183.99 3185.43 1186.59 3183.65 1188.66C3182.16 1190.38 3180.1 1191.48 3177.84 1191.77C3174.01 1192.16 3172.23 1190.05 3172.49 1189.79Z" fill="#EB996E"/>
<path d="M3184.38 1195.2C3184.38 1195.2 3187.35 1197.25 3187.35 1202.53C3187.22 1205.62 3185.89 1208.53 3183.66 1210.66C3182.23 1211.95 3180.54 1212.91 3178.7 1213.48C3176.87 1214.05 3174.93 1214.21 3173.02 1213.96C3171.11 1213.6 3169.3 1212.82 3167.73 1211.67C3166.15 1210.53 3164.85 1209.06 3163.91 1207.35C3163.17 1205.98 3162.71 1204.47 3162.56 1202.92C3162.42 1201.36 3162.58 1199.79 3163.05 1198.31C3164.7 1193.22 3168.07 1191.7 3168.2 1192.23C3168.33 1192.76 3166.09 1194.54 3165.3 1198.83C3164.9 1200.87 3165.15 1202.98 3166.01 1204.87C3166.87 1206.75 3168.29 1208.33 3170.09 1209.37C3171.88 1210.4 3173.96 1210.86 3176.02 1210.66C3178.09 1210.47 3180.04 1209.63 3181.61 1208.28C3183.51 1206.72 3184.73 1204.5 3185.04 1202.07C3185.12 1199.76 3184.9 1197.45 3184.38 1195.2Z" fill="#263238"/>
<path d="M3161.13 1167.93C3159.66 1169.29 3157.93 1170.35 3156.05 1171.03C3150.99 1173.24 3145.52 1174.36 3140 1174.33C3131.75 1174.29 3123.64 1172.25 3116.36 1168.39C3107.57 1163.6 3100.04 1156.82 3094.36 1148.57C3084.62 1133.35 3078.6 1116.04 3076.8 1098.05C3075.87 1091.45 3075.41 1085.77 3075.14 1082C3074.81 1080.01 3074.81 1077.98 3075.14 1075.99C3076.84 1083.16 3078.16 1090.42 3079.11 1097.72C3081.55 1115.13 3087.67 1131.81 3097.07 1146.66C3102.39 1154.49 3109.41 1161.01 3117.61 1165.75C3124.44 1169.47 3132.03 1171.59 3139.8 1171.95C3147.11 1172.03 3154.36 1170.66 3161.13 1167.93Z" fill="#FFDE00"/>
<path d="M3205.58 1111.13C3204.59 1111.13 3201.62 1099.7 3193.89 1087.29C3186.16 1074.87 3177.05 1067.01 3177.71 1066.22C3185.71 1070.77 3192.28 1077.47 3196.66 1085.57C3202 1093.07 3205.09 1101.94 3205.58 1111.13Z" fill="#263238"/>
<path d="M2846.11 1669.39H2822.79C2801.59 1667.35 2789.77 1667.02 2783.83 1661.4C2775.9 1653.81 2786.8 1646.41 2786.8 1646.41C2786.8 1646.41 2771.48 1641.13 2772.93 1631.81C2773.85 1625.21 2781.12 1624.75 2781.12 1624.75C2781.12 1624.75 2767.91 1619.46 2764.94 1613.78C2761.31 1606.12 2770.82 1602.03 2770.82 1602.03C2752.39 1590.67 2754.11 1579.38 2758.33 1578.25C2762.56 1577.13 2776.96 1583.8 2776.96 1583.8C2789.11 1587.23 2822.26 1597.34 2809.98 1579.05C2797.7 1560.75 2795.19 1542.13 2797.96 1536.58C2798.56 1535.12 2799.67 1533.93 2801.08 1533.22C2802.48 1532.5 2804.1 1532.32 2805.63 1532.69C2807.16 1533.07 2808.51 1533.98 2809.43 1535.26C2810.35 1536.54 2810.78 1538.11 2810.64 1539.68C2812.54 1546.88 2815.45 1553.78 2819.29 1560.16C2822.21 1565.3 2825.93 1569.93 2830.32 1573.89C2835.54 1578.52 2840.16 1582.22 2844.12 1585.32L2864.86 1605.13L2846.11 1669.39Z" fill="#FFBE9D"/>
<path d="M2701.01 1436.72C2702.73 1431.7 2706.89 1428.14 2711.38 1430.51C2712.27 1431.56 2712.88 1432.83 2713.13 1434.18C2713.39 1435.54 2713.28 1436.94 2712.83 1438.24L2698.43 1485.07L2712.04 1452.04C2713.76 1447.02 2718.31 1443.99 2721.42 1446.69C2722.19 1447.78 2722.69 1449.04 2722.89 1450.36C2723.09 1451.68 2722.97 1453.03 2722.54 1454.29L2710.12 1493.19L2720.23 1468.89C2722.34 1463.34 2724.79 1461.82 2727.62 1463.07C2730.46 1464.33 2730.53 1468.36 2729.87 1470.6L2721.35 1499.27C2723.2 1504.81 2729.54 1522.18 2723.4 1531.96C2723.4 1532.42 2724.06 1534.07 2723.99 1534.6L2726.9 1537.9L2708.14 1555.14C2708.14 1555.14 2690.51 1510.56 2687.14 1497.15C2685.07 1489.44 2685.44 1481.27 2688.2 1473.77L2701.01 1436.72Z" fill="#FFBE9D"/>
</svg>
