<svg width="670" height="110" viewBox="0 0 670 110" fill="none" xmlns="http://www.w3.org/2000/svg">
<path d="M6.80273 93.2679L15.5254 88.971V64.3413L6.80273 60.0444V93.2679Z" fill="#FFDE00"/>
<path d="M34.0824 59.5114C48.2166 59.5114 59.6746 48.2689 59.6746 34.4005C59.6746 20.5321 48.2166 9.28955 34.0824 9.28955C19.9482 9.28955 8.49023 20.5321 8.49023 34.4005C8.49023 48.2689 19.9482 59.5114 34.0824 59.5114Z" fill="#FFDE00"/>
<path d="M83.0824 59.5114C97.2166 59.5114 108.675 48.2689 108.675 34.4005C108.675 20.5321 97.2166 9.28955 83.0824 9.28955C68.9482 9.28955 57.4902 20.5321 57.4902 34.4005C57.4902 48.2689 68.9482 59.5114 83.0824 59.5114Z" fill="#FFDE00"/>
<path d="M108.754 36.8498C108.754 22.7045 97.2899 11.2318 83.1445 11.2318C82.3367 11.2318 81.5289 11.2748 80.7383 11.3521C80.4891 11.3779 80.2399 11.4123 79.9906 11.4467C79.4492 11.5154 78.9078 11.5928 78.375 11.6959C78.1 11.7475 77.825 11.8076 77.55 11.8678C77.0344 11.9795 76.5359 12.1084 76.0375 12.2545C75.7883 12.3318 75.5305 12.392 75.2727 12.4779C74.6797 12.667 74.1039 12.8818 73.5281 13.1139C73.3906 13.174 73.2445 13.217 73.1156 13.2686C72.4281 13.5607 71.7578 13.8959 71.0961 14.2396C70.8727 14.36 70.6578 14.4889 70.4344 14.6178C69.7343 15.0115 69.0571 15.4448 68.4063 15.9154C68.0281 16.1818 67.6672 16.4568 67.3063 16.7404C67.0656 16.9295 66.825 17.1186 66.593 17.3162C66.2234 17.6342 65.8625 17.9607 65.5102 18.2959C65.3211 18.4764 65.1149 18.6568 64.9258 18.8373C64.4274 19.3443 63.9461 19.8686 63.4906 20.4186C63.3016 20.642 63.1297 20.8826 62.9492 21.1147C62.6742 21.4756 62.3992 21.8279 62.1328 22.2061C61.9352 22.4811 61.7547 22.7647 61.5742 23.0568C61.3508 23.4092 61.1359 23.7529 60.9297 24.1225C60.7578 24.4232 60.5859 24.7326 60.4227 25.0334C60.225 25.4115 60.0445 25.8068 59.8641 26.1936C59.7266 26.4857 59.5805 26.7865 59.4602 27.0873C59.1852 27.749 58.9359 28.4107 58.7211 29.0982C58.7125 29.0725 58.7039 29.0553 58.6953 29.0381C58.4891 28.3764 58.2484 27.7318 57.982 27.0959C57.8531 26.7779 57.6984 26.4772 57.5609 26.1678C57.2499 25.4627 56.8969 24.7768 56.5039 24.1139C56.2977 23.7615 56.0914 23.4092 55.868 23.0654C55.6789 22.7732 55.4984 22.4897 55.3008 22.2061C55.043 21.8365 54.768 21.4842 54.493 21.1318C54.3125 20.8912 54.132 20.6506 53.943 20.4186C53.4875 19.8772 53.0063 19.3443 52.5078 18.8373C52.3188 18.6482 52.1125 18.4678 51.9234 18.2787C51.5711 17.9436 51.2188 17.617 50.8492 17.3076C50.6086 17.11 50.368 16.9209 50.1273 16.7232C49.775 16.4396 49.4055 16.1732 49.0359 15.9068C48.7867 15.7264 48.5375 15.5545 48.2797 15.3826C47.8672 15.1162 47.4461 14.8584 47.0078 14.6092C46.7844 14.4803 46.5609 14.3428 46.3375 14.2225C45.6826 13.8678 45.0115 13.5438 44.3266 13.2514C44.1891 13.1912 44.043 13.1482 43.8969 13.0881C43.3297 12.8561 42.7453 12.6412 42.1609 12.4521C41.9031 12.3748 41.6539 12.2975 41.3961 12.2287C40.8977 12.0912 40.3992 11.9537 39.8836 11.842C39.6086 11.7818 39.3336 11.7217 39.0586 11.6701C38.5258 11.5756 37.9844 11.4896 37.443 11.4209C37.1938 11.3865 36.9445 11.3521 36.6953 11.3264C35.9047 11.249 35.1055 11.2061 34.2891 11.2061C20.1438 11.2061 8.67969 22.6787 8.67969 36.824C8.67969 47.042 14.6781 55.842 23.332 59.9498C22.7442 60.3391 22.2617 60.8675 21.9274 61.4882C21.593 62.1089 21.4172 62.8026 21.4156 63.5076V67.2287L4.17656 58.7467C2.56953 58.7467 1.24609 60.4053 1.24609 62.442V90.8701C1.24609 92.8983 2.56953 94.5569 4.17656 94.5569L21.4328 86.049V96.4217C21.4328 98.7764 23.3578 100.693 25.7039 100.693H94.1359C96.4906 100.693 98.407 98.7678 98.407 96.4217V63.5248C98.407 61.5568 97.0492 59.9068 95.2359 59.417C103.28 55.0943 108.754 46.6123 108.754 36.8498ZM34.3063 43.0545C30.8773 43.0545 28.1102 40.2787 28.1102 36.8498C28.1102 33.4209 30.8859 30.6451 34.3063 30.6451C37.7352 30.6451 40.5109 33.4209 40.5109 36.8498C40.5109 40.2701 37.7352 43.0545 34.3063 43.0545ZM46.707 59.2537C46.8188 59.1936 46.9219 59.1248 47.025 59.0561C47.4547 58.8068 47.8844 58.5576 48.2969 58.2826C48.5547 58.1193 48.8039 57.9475 49.0531 57.767C49.4227 57.5006 49.7836 57.2342 50.1445 56.9506C50.3938 56.7615 50.6344 56.5725 50.8664 56.3748C51.2273 56.0568 51.5883 55.7303 51.9406 55.3951C52.1383 55.2147 52.3445 55.0342 52.525 54.8365C53.0234 54.3295 53.5047 53.8053 53.9602 53.2639C54.1492 53.0318 54.3297 52.7912 54.5102 52.5506C54.7852 52.1983 55.0602 51.8459 55.318 51.4764C55.5156 51.1928 55.6961 50.9006 55.8852 50.6084C56.1 50.2732 56.3148 49.9209 56.5211 49.5686C56.7016 49.2592 56.8734 48.9498 57.0367 48.6318C57.2344 48.2709 57.4063 47.8928 57.5781 47.5147C57.7242 47.2053 57.8703 46.8959 57.9992 46.5779C58.2656 45.9506 58.4977 45.2975 58.7125 44.6443C58.7211 44.6272 58.7297 44.6014 58.7383 44.5842C58.9531 45.2631 59.2023 45.942 59.4773 46.5951C59.5977 46.8959 59.7438 47.1881 59.8813 47.4889C60.0617 47.8756 60.2422 48.2623 60.4399 48.6404C60.5945 48.9498 60.7664 49.2506 60.9469 49.56C61.1531 49.9209 61.368 50.2647 61.5914 50.617C61.7719 50.9006 61.9609 51.1928 62.15 51.4678C62.4078 51.8373 62.6828 52.1982 62.9664 52.5592C63.1469 52.7912 63.3188 53.0318 63.5078 53.2467C63.9633 53.7967 64.4445 54.3209 64.943 54.8279C65.132 55.017 65.3297 55.1889 65.5274 55.3693C65.8797 55.7131 66.2406 56.0397 66.6102 56.349C66.8422 56.5467 67.0828 56.7357 67.3234 56.9248C67.6844 57.2084 68.0453 57.4834 68.4234 57.7498C68.6727 57.9217 68.9133 58.0936 69.1711 58.2654C69.5922 58.5404 70.0133 58.7897 70.4516 59.0389C70.5547 59.099 70.6578 59.1678 70.7609 59.2279H46.707V59.2537ZM83.1359 43.0545C79.707 43.0545 76.9313 40.2787 76.9313 36.8498C76.9313 33.4209 79.707 30.6451 83.1359 30.6451C86.5649 30.6451 89.3406 33.4209 89.3406 36.8498C89.3406 40.2701 86.5649 43.0545 83.1359 43.0545Z" fill="black"/>
<path d="M34.2617 43.896C38.2723 43.896 41.5234 40.6448 41.5234 36.6343C41.5234 32.6237 38.2723 29.3726 34.2617 29.3726C30.2512 29.3726 27 32.6237 27 36.6343C27 40.6448 30.2512 43.896 34.2617 43.896Z" fill="#FFDE00"/>
<path d="M83.2734 43.896C87.284 43.896 90.5352 40.6448 90.5352 36.6343C90.5352 32.6237 87.284 29.3726 83.2734 29.3726C79.2629 29.3726 76.0117 32.6237 76.0117 36.6343C76.0117 40.6448 79.2629 43.896 83.2734 43.896Z" fill="#FFDE00"/>
<path fill-rule="evenodd" clip-rule="evenodd" d="M58.187 65.9995C56.1062 65.9997 54.0558 66.4984 52.2073 67.4538C50.3589 68.4092 48.7662 69.7935 47.5626 71.4909C46.359 73.1882 45.5795 75.1492 45.2893 77.2096C44.9992 79.2701 45.2069 81.37 45.8951 83.3337C46.5832 85.2974 47.7317 87.0677 49.2445 88.4964C50.7573 89.925 52.5903 90.9705 54.5901 91.5453C56.5899 92.1201 58.6983 92.2074 60.7388 91.8C62.7793 91.3926 64.6926 90.5024 66.3183 89.2037L71.6374 94.5228C71.9104 94.7864 72.276 94.9323 72.6555 94.929C73.035 94.9257 73.398 94.7735 73.6664 94.5052C73.9347 94.2368 74.0869 93.8738 74.0902 93.4943C74.0935 93.1148 73.9476 92.7492 73.684 92.4762L68.3649 87.1571C69.8962 85.2406 70.8552 82.9307 71.1316 80.4931C71.4079 78.0556 70.9903 75.5896 69.9269 73.3789C68.8634 71.1683 67.1973 69.3028 65.1204 67.9973C63.0435 66.6918 60.6402 65.9993 58.187 65.9995ZM49.5028 79.0258C49.5028 77.8854 49.7274 76.7561 50.1639 75.7025C50.6003 74.6489 51.2399 73.6916 52.0464 72.8852C52.8528 72.0788 53.8101 71.4391 54.8637 71.0027C55.9173 70.5662 57.0466 70.3416 58.187 70.3416C59.3274 70.3416 60.4567 70.5662 61.5103 71.0027C62.5639 71.4391 63.5213 72.0788 64.3277 72.8852C65.1341 73.6916 65.7738 74.6489 66.2102 75.7025C66.6466 76.7561 66.8712 77.8854 66.8712 79.0258C66.8712 81.329 65.9563 83.5379 64.3277 85.1665C62.6991 86.7951 60.4902 87.71 58.187 87.71C55.8838 87.71 53.675 86.7951 52.0464 85.1665C50.4177 83.5379 49.5028 81.329 49.5028 79.0258Z" fill="#FFDE00"/>
<path d="M62.5293 79.0267L56.0161 82.7871V75.2663L62.5293 79.0267Z" fill="#FFDE00"/>
<path d="M159.055 86L147.375 44.8672H147.023C147.128 45.9349 147.232 47.3802 147.336 49.2031C147.466 51.026 147.583 52.9922 147.688 55.1016C147.792 57.2109 147.844 59.2422 147.844 61.1953V86H134.172V28.8906H154.719L166.633 69.4375H166.945L178.625 28.8906H199.211V86H185.031V60.9609C185.031 59.1641 185.057 57.237 185.109 55.1797C185.188 53.0964 185.266 51.1432 185.344 49.3203C185.448 47.4714 185.539 46.013 185.617 44.9453H185.266L173.742 86H159.055ZM252.883 63.7734C252.883 67.4714 252.375 70.7526 251.359 73.6172C250.344 76.4818 248.872 78.8906 246.945 80.8438C245.018 82.7969 242.688 84.2812 239.953 85.2969C237.219 86.2865 234.133 86.7812 230.695 86.7812C227.492 86.7812 224.549 86.2865 221.867 85.2969C219.211 84.2812 216.893 82.7969 214.914 80.8438C212.935 78.8906 211.398 76.4818 210.305 73.6172C209.237 70.7526 208.703 67.4714 208.703 63.7734C208.703 58.8776 209.589 54.737 211.359 51.3516C213.156 47.9661 215.708 45.388 219.016 43.6172C222.349 41.8464 226.32 40.9609 230.93 40.9609C235.174 40.9609 238.951 41.8464 242.258 43.6172C245.565 45.388 248.156 47.9661 250.031 51.3516C251.932 54.737 252.883 58.8776 252.883 63.7734ZM224.211 63.7734C224.211 66.2995 224.432 68.4349 224.875 70.1797C225.318 71.8984 226.021 73.2135 226.984 74.125C227.974 75.0104 229.263 75.4531 230.852 75.4531C232.44 75.4531 233.703 75.0104 234.641 74.125C235.578 73.2135 236.255 71.8984 236.672 70.1797C237.115 68.4349 237.336 66.2995 237.336 63.7734C237.336 61.2474 237.115 59.138 236.672 57.4453C236.255 55.7526 235.565 54.4766 234.602 53.6172C233.664 52.7578 232.388 52.3281 230.773 52.3281C228.456 52.3281 226.776 53.2917 225.734 55.2188C224.719 57.1458 224.211 59.9974 224.211 63.7734ZM273.234 86L256.359 41.7422H272.297L279.797 67.9141C279.875 68.1484 280.005 68.7474 280.188 69.7109C280.396 70.6745 280.5 71.5729 280.5 72.4062H280.773C280.773 71.5208 280.865 70.6745 281.047 69.8672C281.229 69.0599 281.372 68.4349 281.477 67.9922L289.328 41.7422H305.227L288.352 86H273.234ZM325.891 41.7422V86H310.617V41.7422H325.891ZM318.312 23.9297C320.5 23.9297 322.401 24.3854 324.016 25.2969C325.656 26.2083 326.477 28.0182 326.477 30.7266C326.477 33.3568 325.656 35.1406 324.016 36.0781C322.401 36.9896 320.5 37.4453 318.312 37.4453C316.073 37.4453 314.159 36.9896 312.57 36.0781C311.008 35.1406 310.227 33.3568 310.227 30.7266C310.227 28.0182 311.008 26.2083 312.57 25.2969C314.159 24.3854 316.073 23.9297 318.312 23.9297ZM356.477 40.9609C360.773 40.9609 364.484 41.7161 367.609 43.2266C370.734 44.7109 373.143 46.9505 374.836 49.9453C376.529 52.9401 377.375 56.6901 377.375 61.1953V67.9922H350.07C350.201 70.3099 351.06 72.2109 352.648 73.6953C354.263 75.1797 356.633 75.9219 359.758 75.9219C362.518 75.9219 365.044 75.6484 367.336 75.1016C369.654 74.5547 372.036 73.7083 374.484 72.5625V83.5391C372.349 84.6589 370.018 85.4792 367.492 86C364.966 86.5208 361.776 86.7812 357.922 86.7812C353.469 86.7812 349.484 85.987 345.969 84.3984C342.453 82.8099 339.68 80.349 337.648 77.0156C335.643 73.6823 334.641 69.3984 334.641 64.1641C334.641 58.8516 335.552 54.4896 337.375 51.0781C339.198 47.6406 341.75 45.1016 345.031 43.4609C348.312 41.7943 352.128 40.9609 356.477 40.9609ZM357.023 51.3516C355.227 51.3516 353.716 51.9245 352.492 53.0703C351.294 54.1901 350.591 55.9609 350.383 58.3828H363.508C363.482 57.0807 363.221 55.8958 362.727 54.8281C362.232 53.7604 361.503 52.9141 360.539 52.2891C359.602 51.6641 358.43 51.3516 357.023 51.3516ZM422.883 86H407.688V28.8906H441.438V41.2734H422.883V52.1719H439.992V64.5547H422.883V86ZM465.266 41.7422V86H449.992V41.7422H465.266ZM457.688 23.9297C459.875 23.9297 461.776 24.3854 463.391 25.2969C465.031 26.2083 465.852 28.0182 465.852 30.7266C465.852 33.3568 465.031 35.1406 463.391 36.0781C461.776 36.9896 459.875 37.4453 457.688 37.4453C455.448 37.4453 453.534 36.9896 451.945 36.0781C450.383 35.1406 449.602 33.3568 449.602 30.7266C449.602 28.0182 450.383 26.2083 451.945 25.2969C453.534 24.3854 455.448 23.9297 457.688 23.9297ZM503.625 40.9609C508.182 40.9609 511.906 42.25 514.797 44.8281C517.688 47.4062 519.133 51.5339 519.133 57.2109V86H503.859V61.8594C503.859 58.9167 503.43 56.7031 502.57 55.2188C501.737 53.7083 500.383 52.9531 498.508 52.9531C495.617 52.9531 493.677 54.138 492.688 56.5078C491.698 58.8516 491.203 62.224 491.203 66.625V86H475.93V41.7422H487.453L489.523 47.6016H490.109C491.047 46.1953 492.167 44.9974 493.469 44.0078C494.771 43.0182 496.268 42.263 497.961 41.7422C499.654 41.2214 501.542 40.9609 503.625 40.9609ZM543.273 86.7812C538.716 86.7812 534.966 84.8411 532.023 80.9609C529.081 77.0807 527.609 71.4036 527.609 63.9297C527.609 56.3776 529.12 50.6615 532.141 46.7812C535.161 42.901 539.068 40.9609 543.859 40.9609C545.839 40.9609 547.544 41.2474 548.977 41.8203C550.409 42.3932 551.646 43.1745 552.688 44.1641C553.755 45.1276 554.68 46.2214 555.461 47.4453H555.773C555.591 46.3255 555.422 44.7891 555.266 42.8359C555.109 40.8568 555.031 38.9297 555.031 37.0547V25.2188H570.422V86H558.898L555.617 80.4141H555.031C554.328 81.5859 553.443 82.6536 552.375 83.6172C551.333 84.5807 550.057 85.349 548.547 85.9219C547.062 86.4948 545.305 86.7812 543.273 86.7812ZM549.523 74.7109C551.971 74.7109 553.69 73.9427 554.68 72.4062C555.695 70.8438 556.242 68.474 556.32 65.2969V64.0859C556.32 60.5964 555.826 57.9271 554.836 56.0781C553.872 54.2031 552.049 53.2656 549.367 53.2656C547.544 53.2656 546.034 54.151 544.836 55.9219C543.638 57.6927 543.039 60.4401 543.039 64.1641C543.039 67.8359 543.638 70.5182 544.836 72.2109C546.06 73.8776 547.622 74.7109 549.523 74.7109ZM600.93 40.9609C605.227 40.9609 608.938 41.7161 612.062 43.2266C615.188 44.7109 617.596 46.9505 619.289 49.9453C620.982 52.9401 621.828 56.6901 621.828 61.1953V67.9922H594.523C594.654 70.3099 595.513 72.2109 597.102 73.6953C598.716 75.1797 601.086 75.9219 604.211 75.9219C606.971 75.9219 609.497 75.6484 611.789 75.1016C614.107 74.5547 616.49 73.7083 618.938 72.5625V83.5391C616.802 84.6589 614.471 85.4792 611.945 86C609.419 86.5208 606.229 86.7812 602.375 86.7812C597.922 86.7812 593.938 85.987 590.422 84.3984C586.906 82.8099 584.133 80.349 582.102 77.0156C580.096 73.6823 579.094 69.3984 579.094 64.1641C579.094 58.8516 580.005 54.4896 581.828 51.0781C583.651 47.6406 586.203 45.1016 589.484 43.4609C592.766 41.7943 596.581 40.9609 600.93 40.9609ZM601.477 51.3516C599.68 51.3516 598.169 51.9245 596.945 53.0703C595.747 54.1901 595.044 55.9609 594.836 58.3828H607.961C607.935 57.0807 607.674 55.8958 607.18 54.8281C606.685 53.7604 605.956 52.9141 604.992 52.2891C604.055 51.6641 602.883 51.3516 601.477 51.3516ZM657.18 40.9609C658.013 40.9609 658.885 41.026 659.797 41.1562C660.708 41.2604 661.385 41.3516 661.828 41.4297L660.461 55.8438C659.966 55.7135 659.328 55.6094 658.547 55.5312C657.766 55.4271 656.672 55.375 655.266 55.375C654.302 55.375 653.273 55.4661 652.18 55.6484C651.086 55.8307 650.044 56.2214 649.055 56.8203C648.091 57.3932 647.297 58.2786 646.672 59.4766C646.047 60.6484 645.734 62.237 645.734 64.2422V86H630.461V41.7422H641.828L644.211 48.8125H644.953C645.76 47.3542 646.789 46.0391 648.039 44.8672C649.315 43.6693 650.734 42.7188 652.297 42.0156C653.885 41.3125 655.513 40.9609 657.18 40.9609Z" fill="#FFDE00"/>
</svg>
