<svg width="542" height="294" viewBox="0 0 542 294" fill="none" xmlns="http://www.w3.org/2000/svg">
<path d="M234.871 102.793C259.284 102.793 279.075 83.3743 279.075 59.4198C279.075 35.4653 259.284 16.0464 234.871 16.0464C210.457 16.0464 190.666 35.4653 190.666 59.4198C190.666 83.3743 210.457 102.793 234.871 102.793Z" fill="#FFDE00"/>
<path d="M319.507 102.793C343.921 102.793 363.712 83.3743 363.712 59.4198C363.712 35.4653 343.921 16.0464 319.507 16.0464C295.094 16.0464 275.303 35.4653 275.303 59.4198C275.303 83.3743 295.094 102.793 319.507 102.793Z" fill="#FFDE00"/>
<path d="M363.848 63.6497C363.848 39.2169 344.046 19.4005 319.613 19.4005C318.218 19.4005 316.823 19.4747 315.457 19.6083C315.027 19.6528 314.596 19.7122 314.166 19.7716C313.23 19.8903 312.295 20.0239 311.375 20.2021C310.9 20.2911 310.425 20.395 309.95 20.4989C309.059 20.6919 308.198 20.9146 307.338 21.1669C306.907 21.3005 306.462 21.4044 306.016 21.5528C304.992 21.8794 303.998 22.2505 303.003 22.6513C302.766 22.7552 302.513 22.8294 302.291 22.9185C301.103 23.4231 299.945 24.0021 298.802 24.5958C298.416 24.8036 298.045 25.0263 297.659 25.2489C296.45 25.929 295.281 26.6774 294.156 27.4903C293.503 27.9505 292.88 28.4255 292.256 28.9153C291.841 29.2419 291.425 29.5685 291.024 29.9099C290.386 30.4591 289.763 31.0231 289.154 31.6021C288.827 31.9138 288.471 32.2255 288.145 32.5372C287.284 33.413 286.452 34.3185 285.666 35.2685C285.339 35.6544 285.042 36.07 284.73 36.4708C284.255 37.0942 283.78 37.7028 283.32 38.356C282.979 38.831 282.667 39.3208 282.355 39.8255C281.97 40.4341 281.598 41.0278 281.242 41.6661C280.945 42.1856 280.648 42.72 280.366 43.2396C280.025 43.8927 279.713 44.5755 279.402 45.2435C279.164 45.7481 278.912 46.2677 278.704 46.7872C278.229 47.9302 277.798 49.0731 277.427 50.2606C277.413 50.2161 277.398 50.1864 277.383 50.1567C277.027 49.0138 276.611 47.9005 276.151 46.8021C275.928 46.2528 275.661 45.7333 275.423 45.1989C274.886 43.981 274.277 42.7963 273.598 41.6513C273.241 41.0427 272.885 40.4341 272.499 39.8403C272.173 39.3356 271.861 38.8458 271.52 38.356C271.074 37.7177 270.599 37.1091 270.124 36.5005C269.812 36.0849 269.501 35.6692 269.174 35.2685C268.387 34.3333 267.556 33.413 266.695 32.5372C266.369 32.2106 266.012 31.8989 265.686 31.5724C265.077 30.9935 264.469 30.4294 263.83 29.895C263.415 29.5536 262.999 29.2271 262.584 28.8856C261.975 28.3958 261.337 27.9356 260.698 27.4755C260.268 27.1638 259.837 26.8669 259.392 26.57C258.68 26.1099 257.952 25.6646 257.195 25.2341C256.809 25.0114 256.423 24.7739 256.037 24.5661C254.906 23.9535 253.747 23.3938 252.564 22.8888C252.327 22.7849 252.074 22.7106 251.822 22.6067C250.842 22.206 249.833 21.8349 248.823 21.5083C248.378 21.3747 247.948 21.2411 247.502 21.1224C246.641 20.8849 245.78 20.6474 244.89 20.4544C244.415 20.3505 243.94 20.2466 243.465 20.1575C242.545 19.9942 241.609 19.8458 240.674 19.7271C240.244 19.6677 239.813 19.6083 239.383 19.5638C238.017 19.4302 236.637 19.356 235.227 19.356C210.794 19.356 190.992 39.1724 190.992 63.6052C190.992 81.2544 201.353 96.4544 216.301 103.55C215.285 104.222 214.452 105.135 213.875 106.207C213.297 107.279 212.993 108.477 212.991 109.695V116.122L183.214 101.472C180.438 101.472 178.152 104.336 178.152 107.854V156.958C178.152 160.461 180.438 163.325 183.214 163.325L213.02 148.63V166.547C213.02 170.614 216.345 173.924 220.398 173.924H338.598C342.666 173.924 345.976 170.599 345.976 166.547V109.725C345.976 106.325 343.63 103.475 340.498 102.629C354.392 95.163 363.848 80.5122 363.848 63.6497ZM235.256 74.3669C229.334 74.3669 224.554 69.5724 224.554 63.6497C224.554 57.7271 229.348 52.9325 235.256 52.9325C241.179 52.9325 245.973 57.7271 245.973 63.6497C245.973 69.5575 241.179 74.3669 235.256 74.3669ZM256.676 102.347C256.869 102.243 257.047 102.125 257.225 102.006C257.967 101.575 258.709 101.145 259.422 100.67C259.867 100.388 260.298 100.091 260.728 99.7794C261.366 99.3192 261.99 98.8591 262.613 98.3692C263.044 98.0427 263.459 97.7161 263.86 97.3747C264.484 96.8255 265.107 96.2614 265.716 95.6825C266.057 95.3708 266.413 95.0591 266.725 94.7177C267.586 93.8419 268.417 92.9364 269.204 92.0013C269.53 91.6005 269.842 91.1849 270.154 90.7692C270.629 90.1607 271.104 89.5521 271.549 88.9138C271.891 88.4239 272.202 87.9192 272.529 87.4146C272.9 86.8356 273.271 86.2271 273.627 85.6185C273.939 85.0841 274.236 84.5497 274.518 84.0005C274.859 83.3771 275.156 82.7239 275.453 82.0708C275.705 81.5364 275.958 81.0021 276.18 80.4528C276.641 79.3692 277.041 78.2411 277.413 77.113C277.427 77.0833 277.442 77.0388 277.457 77.0091C277.828 78.1817 278.259 79.3544 278.734 80.4825C278.941 81.0021 279.194 81.5067 279.431 82.0263C279.743 82.6942 280.055 83.3622 280.396 84.0153C280.663 84.5497 280.96 85.0692 281.272 85.6036C281.628 86.2271 281.999 86.8208 282.385 87.4294C282.697 87.9192 283.023 88.4239 283.35 88.8989C283.795 89.5372 284.27 90.1606 284.76 90.7841C285.072 91.1849 285.369 91.6005 285.695 91.9716C286.482 92.9216 287.313 93.8271 288.174 94.7028C288.501 95.0294 288.842 95.3263 289.184 95.638C289.792 96.2317 290.416 96.7958 291.054 97.3302C291.455 97.6716 291.87 97.9981 292.286 98.3247C292.909 98.8146 293.533 99.2896 294.186 99.7497C294.616 100.047 295.032 100.343 295.477 100.64C296.205 101.115 296.932 101.546 297.689 101.976C297.867 102.08 298.045 102.199 298.223 102.303H256.676V102.347ZM319.598 74.3669C313.676 74.3669 308.881 69.5724 308.881 63.6497C308.881 57.7271 313.676 52.9325 319.598 52.9325C325.521 52.9325 330.316 57.7271 330.316 63.6497C330.316 69.5575 325.521 74.3669 319.598 74.3669Z" fill="#1C1B1F"/>
<path d="M187.754 161.099L202.82 153.677V111.135L187.754 103.713V161.099Z" fill="#FFDE00"/>
<path d="M235.18 75.8213C242.107 75.8213 247.723 70.2056 247.723 63.2783C247.723 56.351 242.107 50.7354 235.18 50.7354C228.252 50.7354 222.637 56.351 222.637 63.2783C222.637 70.2056 228.252 75.8213 235.18 75.8213Z" fill="#FFDE00"/>
<path d="M319.836 75.8213C326.763 75.8213 332.379 70.2056 332.379 63.2783C332.379 56.351 326.763 50.7354 319.836 50.7354C312.909 50.7354 307.293 56.351 307.293 63.2783C307.293 70.2056 312.909 75.8213 319.836 75.8213Z" fill="#FFDE00"/>
<path fill-rule="evenodd" clip-rule="evenodd" d="M276.5 114C272.905 114 269.364 114.862 266.171 116.512C262.978 118.162 260.227 120.553 258.148 123.485C256.069 126.417 254.723 129.804 254.222 133.363C253.721 136.922 254.079 140.549 255.268 143.941C256.457 147.333 258.44 150.39 261.053 152.858C263.666 155.326 266.832 157.132 270.287 158.125C273.741 159.117 277.383 159.268 280.907 158.565C284.432 157.861 287.736 156.323 290.545 154.08L299.732 163.268C300.204 163.723 300.835 163.975 301.491 163.969C302.146 163.963 302.773 163.701 303.237 163.237C303.7 162.774 303.963 162.146 303.969 161.491C303.974 160.836 303.722 160.204 303.267 159.732L294.08 150.545C296.725 147.235 298.381 143.245 298.858 139.034C299.336 134.824 298.614 130.565 296.777 126.746C294.941 122.928 292.063 119.706 288.475 117.451C284.888 115.196 280.737 114 276.5 114ZM261.5 136.5C261.5 134.53 261.888 132.58 262.641 130.76C263.395 128.94 264.5 127.286 265.893 125.893C267.286 124.501 268.939 123.396 270.759 122.642C272.579 121.888 274.53 121.5 276.5 121.5C278.469 121.5 280.42 121.888 282.24 122.642C284.06 123.396 285.713 124.501 287.106 125.893C288.499 127.286 289.604 128.94 290.358 130.76C291.112 132.58 291.5 134.53 291.5 136.5C291.5 140.478 289.919 144.294 287.106 147.107C284.293 149.92 280.478 151.5 276.5 151.5C272.521 151.5 268.706 149.92 265.893 147.107C263.08 144.294 261.5 140.478 261.5 136.5Z" fill="#FFDE00"/>
<path d="M284 136.5L272.75 142.995V130.005L284 136.5Z" fill="#FFDE00"/>
<path d="M31.0547 273L19.375 231.867H19.0234C19.1276 232.935 19.2318 234.38 19.3359 236.203C19.4661 238.026 19.5833 239.992 19.6875 242.102C19.7917 244.211 19.8438 246.242 19.8438 248.195V273H6.17188V215.891H26.7188L38.6328 256.438H38.9453L50.625 215.891H71.2109V273H57.0312V247.961C57.0312 246.164 57.0573 244.237 57.1094 242.18C57.1875 240.096 57.2656 238.143 57.3438 236.32C57.4479 234.471 57.5391 233.013 57.6172 231.945H57.2656L45.7422 273H31.0547ZM124.883 250.773C124.883 254.471 124.375 257.753 123.359 260.617C122.344 263.482 120.872 265.891 118.945 267.844C117.018 269.797 114.688 271.281 111.953 272.297C109.219 273.286 106.133 273.781 102.695 273.781C99.4922 273.781 96.5495 273.286 93.8672 272.297C91.2109 271.281 88.8932 269.797 86.9141 267.844C84.9349 265.891 83.3984 263.482 82.3047 260.617C81.237 257.753 80.7031 254.471 80.7031 250.773C80.7031 245.878 81.5885 241.737 83.3594 238.352C85.1562 234.966 87.7083 232.388 91.0156 230.617C94.349 228.846 98.3203 227.961 102.93 227.961C107.174 227.961 110.951 228.846 114.258 230.617C117.565 232.388 120.156 234.966 122.031 238.352C123.932 241.737 124.883 245.878 124.883 250.773ZM96.2109 250.773C96.2109 253.299 96.4323 255.435 96.875 257.18C97.3177 258.898 98.0208 260.214 98.9844 261.125C99.974 262.01 101.263 262.453 102.852 262.453C104.44 262.453 105.703 262.01 106.641 261.125C107.578 260.214 108.255 258.898 108.672 257.18C109.115 255.435 109.336 253.299 109.336 250.773C109.336 248.247 109.115 246.138 108.672 244.445C108.255 242.753 107.565 241.477 106.602 240.617C105.664 239.758 104.388 239.328 102.773 239.328C100.456 239.328 98.776 240.292 97.7344 242.219C96.7188 244.146 96.2109 246.997 96.2109 250.773ZM145.234 273L128.359 228.742H144.297L151.797 254.914C151.875 255.148 152.005 255.747 152.188 256.711C152.396 257.674 152.5 258.573 152.5 259.406H152.773C152.773 258.521 152.865 257.674 153.047 256.867C153.229 256.06 153.372 255.435 153.477 254.992L161.328 228.742H177.227L160.352 273H145.234ZM197.891 228.742V273H182.617V228.742H197.891ZM190.312 210.93C192.5 210.93 194.401 211.385 196.016 212.297C197.656 213.208 198.477 215.018 198.477 217.727C198.477 220.357 197.656 222.141 196.016 223.078C194.401 223.99 192.5 224.445 190.312 224.445C188.073 224.445 186.159 223.99 184.57 223.078C183.008 222.141 182.227 220.357 182.227 217.727C182.227 215.018 183.008 213.208 184.57 212.297C186.159 211.385 188.073 210.93 190.312 210.93ZM228.477 227.961C232.773 227.961 236.484 228.716 239.609 230.227C242.734 231.711 245.143 233.951 246.836 236.945C248.529 239.94 249.375 243.69 249.375 248.195V254.992H222.07C222.201 257.31 223.06 259.211 224.648 260.695C226.263 262.18 228.633 262.922 231.758 262.922C234.518 262.922 237.044 262.648 239.336 262.102C241.654 261.555 244.036 260.708 246.484 259.562V270.539C244.349 271.659 242.018 272.479 239.492 273C236.966 273.521 233.776 273.781 229.922 273.781C225.469 273.781 221.484 272.987 217.969 271.398C214.453 269.81 211.68 267.349 209.648 264.016C207.643 260.682 206.641 256.398 206.641 251.164C206.641 245.852 207.552 241.49 209.375 238.078C211.198 234.641 213.75 232.102 217.031 230.461C220.312 228.794 224.128 227.961 228.477 227.961ZM229.023 238.352C227.227 238.352 225.716 238.924 224.492 240.07C223.294 241.19 222.591 242.961 222.383 245.383H235.508C235.482 244.081 235.221 242.896 234.727 241.828C234.232 240.76 233.503 239.914 232.539 239.289C231.602 238.664 230.43 238.352 229.023 238.352Z" fill="#1C1B1F"/>
<path d="M294.883 273H279.688V215.891H313.438V228.273H294.883V239.172H311.992V251.555H294.883V273ZM337.266 228.742V273H321.992V228.742H337.266ZM329.688 210.93C331.875 210.93 333.776 211.385 335.391 212.297C337.031 213.208 337.852 215.018 337.852 217.727C337.852 220.357 337.031 222.141 335.391 223.078C333.776 223.99 331.875 224.445 329.688 224.445C327.448 224.445 325.534 223.99 323.945 223.078C322.383 222.141 321.602 220.357 321.602 217.727C321.602 215.018 322.383 213.208 323.945 212.297C325.534 211.385 327.448 210.93 329.688 210.93ZM375.625 227.961C380.182 227.961 383.906 229.25 386.797 231.828C389.688 234.406 391.133 238.534 391.133 244.211V273H375.859V248.859C375.859 245.917 375.43 243.703 374.57 242.219C373.737 240.708 372.383 239.953 370.508 239.953C367.617 239.953 365.677 241.138 364.688 243.508C363.698 245.852 363.203 249.224 363.203 253.625V273H347.93V228.742H359.453L361.523 234.602H362.109C363.047 233.195 364.167 231.997 365.469 231.008C366.771 230.018 368.268 229.263 369.961 228.742C371.654 228.221 373.542 227.961 375.625 227.961ZM415.273 273.781C410.716 273.781 406.966 271.841 404.023 267.961C401.081 264.081 399.609 258.404 399.609 250.93C399.609 243.378 401.12 237.661 404.141 233.781C407.161 229.901 411.068 227.961 415.859 227.961C417.839 227.961 419.544 228.247 420.977 228.82C422.409 229.393 423.646 230.174 424.688 231.164C425.755 232.128 426.68 233.221 427.461 234.445H427.773C427.591 233.326 427.422 231.789 427.266 229.836C427.109 227.857 427.031 225.93 427.031 224.055V212.219H442.422V273H430.898L427.617 267.414H427.031C426.328 268.586 425.443 269.654 424.375 270.617C423.333 271.581 422.057 272.349 420.547 272.922C419.062 273.495 417.305 273.781 415.273 273.781ZM421.523 261.711C423.971 261.711 425.69 260.943 426.68 259.406C427.695 257.844 428.242 255.474 428.32 252.297V251.086C428.32 247.596 427.826 244.927 426.836 243.078C425.872 241.203 424.049 240.266 421.367 240.266C419.544 240.266 418.034 241.151 416.836 242.922C415.638 244.693 415.039 247.44 415.039 251.164C415.039 254.836 415.638 257.518 416.836 259.211C418.06 260.878 419.622 261.711 421.523 261.711ZM472.93 227.961C477.227 227.961 480.938 228.716 484.062 230.227C487.188 231.711 489.596 233.951 491.289 236.945C492.982 239.94 493.828 243.69 493.828 248.195V254.992H466.523C466.654 257.31 467.513 259.211 469.102 260.695C470.716 262.18 473.086 262.922 476.211 262.922C478.971 262.922 481.497 262.648 483.789 262.102C486.107 261.555 488.49 260.708 490.938 259.562V270.539C488.802 271.659 486.471 272.479 483.945 273C481.419 273.521 478.229 273.781 474.375 273.781C469.922 273.781 465.938 272.987 462.422 271.398C458.906 269.81 456.133 267.349 454.102 264.016C452.096 260.682 451.094 256.398 451.094 251.164C451.094 245.852 452.005 241.49 453.828 238.078C455.651 234.641 458.203 232.102 461.484 230.461C464.766 228.794 468.581 227.961 472.93 227.961ZM473.477 238.352C471.68 238.352 470.169 238.924 468.945 240.07C467.747 241.19 467.044 242.961 466.836 245.383H479.961C479.935 244.081 479.674 242.896 479.18 241.828C478.685 240.76 477.956 239.914 476.992 239.289C476.055 238.664 474.883 238.352 473.477 238.352ZM529.18 227.961C530.013 227.961 530.885 228.026 531.797 228.156C532.708 228.26 533.385 228.352 533.828 228.43L532.461 242.844C531.966 242.714 531.328 242.609 530.547 242.531C529.766 242.427 528.672 242.375 527.266 242.375C526.302 242.375 525.273 242.466 524.18 242.648C523.086 242.831 522.044 243.221 521.055 243.82C520.091 244.393 519.297 245.279 518.672 246.477C518.047 247.648 517.734 249.237 517.734 251.242V273H502.461V228.742H513.828L516.211 235.812H516.953C517.76 234.354 518.789 233.039 520.039 231.867C521.315 230.669 522.734 229.719 524.297 229.016C525.885 228.312 527.513 227.961 529.18 227.961Z" fill="#FFDE00"/>
</svg>
